<?xml version="1.0" encoding="UTF-8"?>
<svg id="Capa_2" data-name="Capa 2" xmlns="http://www.w3.org/2000/svg" xmlns:xlink="http://www.w3.org/1999/xlink" viewBox="0 0 468.35 114.7">
  <defs>
    <style>
      .cls-1 {
        clip-path: url(#clippath-1);
      }

      .cls-2 {
        fill: #ffd600;
      }

      .cls-3 {
        stroke: #000;
        stroke-width: 6px;
      }

      .cls-3, .cls-4 {
        fill: none;
      }

      .cls-5 {
        clip-path: url(#clippath);
      }

      .cls-6 {
        fill: red;
      }
    </style>
    <clipPath id="clippath">
      <rect class="cls-4" width="113.8" height="114.69"/>
    </clipPath>
    <clipPath id="clippath-1">
      <rect class="cls-4" x="113.81" width="115.6" height="114.7"/>
    </clipPath>
  </defs>
  <g id="Capa_1-2" data-name="Capa 1">
    <g class="cls-5">
      <path class="cls-3" d="m0,0h113.8v114.69H0V0Z"/>
    </g>
    <g class="cls-1">
      <path d="m113.81,0h115.59v114.7h-115.59V0Z"/>
    </g>
    <path class="cls-6" d="m54.84,14.54c29,0,43.5,13.82,43.5,41.46s-14.5,41.46-43.5,41.46H18.92V14.54h35.92Zm-9.27,63.02h8.79c11.17,0,16.75-5.98,16.75-17.94v-7.25c0-11.97-5.58-17.96-16.75-17.96h-8.79v43.15Z"/>
    <path class="cls-2" d="m195.93,96.35v-29.9c0-3.69.14-7.48.42-11.38.29-3.9.59-7.18.92-9.83.32-2.65.52-4.34.6-5.06h-.5l-15.29,56.17h-20.85l-15.44-56.04h-.48c.08.72.3,2.39.67,5,.36,2.61.7,5.87,1.02,9.77.32,3.89.48,7.68.48,11.38v29.9h-24.46V13.43h37.6l12.54,47.85h.48l12.42-47.85h36.27v82.92h-26.4Z"/>
    <path d="m236.23,33.68h8.6c2.09,0,3.96.41,5.58,1.23,1.63.81,2.89,1.96,3.79,3.46.9,1.49,1.35,3.2,1.35,5.15s-.45,3.67-1.35,5.17c-.91,1.49-2.17,2.64-3.79,3.46-1.63.81-3.49,1.21-5.58,1.21h-8.6v-19.67Zm8.44,16.58c1.43,0,2.69-.28,3.79-.83,1.09-.55,1.94-1.34,2.52-2.35.59-1.03.9-2.21.9-3.56s-.3-2.53-.9-3.54c-.58-1.03-1.43-1.82-2.52-2.38-1.1-.55-2.36-.83-3.79-.83h-4.79v13.5h4.79Z"/>
    <path d="m259.23,33.68h3.65v19.67h-3.65v-19.67Z"/>
    <path d="m274.07,53.62c-1.53,0-3-.22-4.42-.65-1.41-.43-2.52-1-3.35-1.71l1.27-2.83c.8.64,1.79,1.16,2.96,1.56,1.18.41,2.36.6,3.54.6,1.46,0,2.55-.23,3.27-.71.72-.47,1.08-1.09,1.08-1.85,0-.55-.2-1.01-.6-1.38-.41-.38-.92-.67-1.54-.88-.61-.21-1.45-.44-2.52-.71-1.5-.34-2.72-.69-3.65-1.04-.93-.36-1.73-.92-2.4-1.69-.67-.76-1-1.79-1-3.08,0-1.08.29-2.07.88-2.96.59-.89,1.49-1.59,2.69-2.13,1.19-.53,2.65-.79,4.38-.79,1.19,0,2.36.16,3.52.46,1.17.29,2.17.72,3.02,1.29l-1.15,2.83c-.86-.5-1.77-.88-2.71-1.15-.93-.26-1.83-.4-2.71-.4-1.45,0-2.52.24-3.23.73-.71.49-1.06,1.14-1.06,1.94,0,.57.2,1.04.6,1.4.4.35.92.63,1.54.83.63.2,1.46.43,2.52.69,1.47.35,2.67.7,3.6,1.06.94.36,1.74.92,2.4,1.67.67.75,1,1.77,1,3.04,0,1.08-.3,2.07-.9,2.96-.58.88-1.47,1.58-2.67,2.1-1.2.51-2.66.77-4.38.77Z"/>
    <path d="m289.4,36.77h-6.52v-3.08h16.71v3.08h-6.52v16.58h-3.67v-16.58Z"/>
    <path d="m315,53.35l-4.02-5.77c-.17.03-.43.04-.77.04h-4.44v5.73h-3.65v-19.67h8.08c1.71,0,3.19.29,4.46.85,1.26.56,2.23,1.36,2.9,2.42.68,1.04,1.02,2.29,1.02,3.73s-.36,2.74-1.08,3.81c-.72,1.07-1.76,1.87-3.1,2.4l4.54,6.46h-3.94Zm-.08-12.67c0-1.26-.42-2.23-1.25-2.9-.82-.68-2.03-1.02-3.63-1.02h-4.27v7.83h4.27c1.59,0,2.8-.34,3.63-1.02.83-.68,1.25-1.65,1.25-2.9Z"/>
    <path d="m322.44,33.68h3.65v19.67h-3.65v-19.67Z"/>
    <path d="m345.12,43.12c1.08.36,1.94.96,2.58,1.79.64.83.96,1.87.96,3.1,0,1.7-.66,3.01-1.98,3.94-1.31.93-3.22,1.4-5.73,1.4h-9.77v-19.67h9.21c2.33,0,4.13.46,5.38,1.38,1.25.91,1.88,2.15,1.88,3.73,0,.97-.22,1.83-.67,2.58-.45.75-1.06,1.33-1.85,1.75Zm-10.29-6.58v5.44h5.17c1.28,0,2.26-.23,2.94-.69.69-.46,1.04-1.13,1.04-2.02s-.35-1.58-1.04-2.04c-.68-.46-1.66-.69-2.94-.69h-5.17Zm5.9,13.94c2.83,0,4.25-.94,4.25-2.83s-1.42-2.83-4.25-2.83h-5.9v5.67h5.9Z"/>
    <path d="m360.81,53.62c-2.72,0-4.84-.76-6.35-2.27-1.52-1.53-2.27-3.71-2.27-6.56v-11.1h3.65v10.96c0,3.86,1.67,5.79,5,5.79s4.98-1.93,4.98-5.79v-10.96h3.6v11.1c0,2.85-.76,5.04-2.27,6.56-1.52,1.52-3.63,2.27-6.33,2.27Z"/>
    <path d="m374.3,33.68h3.65v19.67h-3.65v-19.67Z"/>
    <path d="m383.05,33.68h8.6c2.09,0,3.96.41,5.58,1.23,1.63.81,2.89,1.96,3.79,3.46.9,1.49,1.35,3.2,1.35,5.15s-.45,3.67-1.35,5.17c-.91,1.49-2.17,2.64-3.79,3.46-1.63.81-3.49,1.21-5.58,1.21h-8.6v-19.67Zm8.44,16.58c1.43,0,2.69-.28,3.79-.83,1.09-.55,1.94-1.34,2.52-2.35.59-1.03.9-2.21.9-3.56s-.3-2.53-.9-3.54c-.58-1.03-1.43-1.82-2.52-2.38-1.1-.55-2.36-.83-3.79-.83h-4.79v13.5h4.79Z"/>
    <path d="m415.23,53.62c-2,0-3.81-.43-5.42-1.29-1.61-.88-2.89-2.08-3.81-3.63-.92-1.55-1.38-3.28-1.38-5.19s.46-3.65,1.38-5.19c.93-1.54,2.2-2.75,3.81-3.63,1.61-.88,3.42-1.31,5.42-1.31s3.8.44,5.42,1.31c1.61.88,2.88,2.08,3.79,3.63.93,1.53,1.4,3.26,1.4,5.19s-.47,3.67-1.4,5.21c-.92,1.53-2.18,2.73-3.79,3.6-1.61.86-3.42,1.29-5.42,1.29Zm0-3.19c1.3,0,2.48-.29,3.52-.88,1.05-.59,1.88-1.42,2.48-2.48.61-1.07.92-2.26.92-3.56s-.31-2.51-.92-3.56c-.6-1.05-1.43-1.88-2.48-2.46-1.04-.59-2.22-.9-3.52-.9s-2.51.3-3.56.9c-1.04.58-1.86,1.41-2.46,2.46-.6,1.06-.9,2.24-.9,3.56s.3,2.49.9,3.56c.59,1.06,1.42,1.89,2.46,2.48,1.05.58,2.24.88,3.56.88Z"/>
    <path d="m442.36,53.35l-4.02-5.77c-.17.03-.43.04-.77.04h-4.44v5.73h-3.65v-19.67h8.08c1.71,0,3.19.29,4.46.85,1.26.56,2.23,1.36,2.9,2.42.68,1.04,1.02,2.29,1.02,3.73s-.36,2.74-1.08,3.81c-.72,1.07-1.76,1.87-3.1,2.4l4.54,6.46h-3.94Zm-.08-12.67c0-1.26-.42-2.23-1.25-2.9-.82-.68-2.03-1.02-3.63-1.02h-4.27v7.83h4.27c1.59,0,2.8-.34,3.63-1.02.83-.68,1.25-1.65,1.25-2.9Z"/>
    <path d="m462.56,48.79h-9.83l-1.94,4.56h-3.77l8.85-19.67h3.6l8.88,19.67h-3.81l-1.98-4.56Zm-1.21-2.85l-3.71-8.6-3.69,8.6h7.4Z"/>
    <path d="m254.29,79.35l-.02-13.04-6.46,10.79h-1.65l-6.46-10.63v12.88h-3.48v-19.67h3l7.81,13.04,7.67-13.04h3.02l.02,19.67h-3.46Z"/>
    <path d="m275.6,74.79h-9.83l-1.94,4.56h-3.77l8.85-19.67h3.6l8.88,19.67h-3.81l-1.98-4.56Zm-1.21-2.85l-3.71-8.6-3.69,8.6h7.4Z"/>
    <path d="m296.56,79.35l-4.02-5.77c-.17.03-.43.04-.77.04h-4.44v5.73h-3.65v-19.67h8.08c1.71,0,3.19.29,4.46.85,1.26.56,2.23,1.36,2.9,2.42.68,1.04,1.02,2.29,1.02,3.73s-.36,2.74-1.08,3.81c-.72,1.07-1.76,1.87-3.1,2.4l4.54,6.46h-3.94Zm-.08-12.67c0-1.26-.42-2.23-1.25-2.9-.82-.68-2.03-1.02-3.63-1.02h-4.27v7.83h4.27c1.59,0,2.8-.34,3.63-1.02.83-.68,1.25-1.65,1.25-2.9Z"/>
    <path d="m316.75,74.79h-9.83l-1.94,4.56h-3.77l8.85-19.67h3.6l8.88,19.67h-3.81l-1.98-4.56Zm-1.21-2.85l-3.71-8.6-3.69,8.6h7.4Z"/>
    <path d="m342.81,59.68l-8.56,19.67h-3.6l-8.6-19.67h3.96l6.56,15.17,6.6-15.17h3.65Z"/>
    <path d="m345.1,59.68h3.65v19.67h-3.65v-19.67Z"/>
    <path d="m353.84,59.68h3.65v16.58h10.29v3.08h-13.94v-19.67Z"/>
    <path d="m370.45,59.68h3.65v16.58h10.29v3.08h-13.94v-19.67Z"/>
    <path d="m399.82,74.79h-9.83l-1.94,4.56h-3.77l8.85-19.67h3.6l8.88,19.67h-3.81l-1.98-4.56Zm-1.21-2.85l-3.71-8.6-3.69,8.6h7.4Z"/>
  </g>
</svg>