<?xml version="1.0" encoding="utf-8"?>
<!-- Generator: Adobe Illustrator 27.1.0, SVG Export Plug-In . SVG Version: 6.00 Build 0)  -->
<svg version="1.1" id="Capa_2_00000098184288126184837060000001889851163104469162_"
	 xmlns="http://www.w3.org/2000/svg" xmlns:xlink="http://www.w3.org/1999/xlink" x="0px" y="0px" viewBox="0 0 468.4 114.7"
	 style="enable-background:new 0 0 468.4 114.7;" xml:space="preserve">
<style type="text/css">
	.st0{clip-path:url(#SVGID_00000100359181592240656570000009169920486176897677_);}
	.st1{fill:#FFFFFF;}
	.st2{clip-path:url(#SVGID_00000016034306848033314680000008462293717250766492_);}
	.st3{fill:#FF0000;}
	.st4{fill:#FFD600;}
</style>
<g>
	<defs>
		<rect id="SVGID_1_" y="0" width="113.8" height="114.7"/>
	</defs>
	<use xlink:href="#SVGID_1_"  style="overflow:visible;fill:#FFFFFF;"/>
	<clipPath id="SVGID_00000008833275088952580170000007025170904371070891_">
		<use xlink:href="#SVGID_1_"  style="overflow:visible;"/>
	</clipPath>
	<g style="clip-path:url(#SVGID_00000008833275088952580170000007025170904371070891_);">
		<path class="st1" d="M0,0h113.8v114.7H0V0z"/>
	</g>
</g>
<g>
	<defs>
		<rect id="SVGID_00000158015759354832172400000015470139481626027929_" x="113.8" y="0" width="115.6" height="114.7"/>
	</defs>
	<clipPath id="SVGID_00000028304317679516946900000016492850209728742573_">
		<use xlink:href="#SVGID_00000158015759354832172400000015470139481626027929_"  style="overflow:visible;"/>
	</clipPath>
	<g style="clip-path:url(#SVGID_00000028304317679516946900000016492850209728742573_);">
		<path d="M113.8,0h115.6v114.7H113.8V0z"/>
	</g>
</g>
<path class="st3" d="M54.8,14.5c29,0,43.5,13.8,43.5,41.5S83.8,97.5,54.8,97.5H18.9V14.5C18.9,14.5,54.8,14.5,54.8,14.5z M45.6,77.6
	h8.8c11.2,0,16.8-6,16.8-17.9v-7.2c0-12-5.6-18-16.8-18h-8.8V77.6z"/>
<path class="st4" d="M195.9,96.3V66.4c0-3.7,0.1-7.5,0.4-11.4c0.3-3.9,0.6-7.2,0.9-9.8c0.3-2.7,0.5-4.3,0.6-5.1h-0.5l-15.3,56.2
	h-20.9l-15.4-56h-0.5c0.1,0.7,0.3,2.4,0.7,5c0.4,2.6,0.7,5.9,1,9.8c0.3,3.9,0.5,7.7,0.5,11.4v29.9H123V13.4h37.6l12.5,47.8h0.5
	l12.4-47.8h36.3v82.9H195.9z"/>
<path class="st1" d="M236.2,33.7h8.6c2.1,0,4,0.4,5.6,1.2c1.6,0.8,2.9,2,3.8,3.5c0.9,1.5,1.4,3.2,1.4,5.2s-0.4,3.7-1.4,5.2
	c-0.9,1.5-2.2,2.6-3.8,3.5c-1.6,0.8-3.5,1.2-5.6,1.2h-8.6V33.7L236.2,33.7z M244.7,50.3c1.4,0,2.7-0.3,3.8-0.8
	c1.1-0.5,1.9-1.3,2.5-2.3c0.6-1,0.9-2.2,0.9-3.6S251.6,41,251,40c-0.6-1-1.4-1.8-2.5-2.4c-1.1-0.5-2.4-0.8-3.8-0.8h-4.8v13.5
	L244.7,50.3L244.7,50.3z"/>
<path class="st1" d="M259.2,33.7h3.6v19.7h-3.6V33.7z"/>
<path class="st1" d="M274.1,53.6c-1.5,0-3-0.2-4.4-0.7c-1.4-0.4-2.5-1-3.4-1.7l1.3-2.8c0.8,0.6,1.8,1.2,3,1.6
	c1.2,0.4,2.4,0.6,3.5,0.6c1.5,0,2.5-0.2,3.3-0.7c0.7-0.5,1.1-1.1,1.1-1.8c0-0.5-0.2-1-0.6-1.4c-0.4-0.4-0.9-0.7-1.5-0.9
	c-0.6-0.2-1.5-0.4-2.5-0.7c-1.5-0.3-2.7-0.7-3.6-1c-0.9-0.4-1.7-0.9-2.4-1.7c-0.7-0.8-1-1.8-1-3.1c0-1.1,0.3-2.1,0.9-3
	s1.5-1.6,2.7-2.1c1.2-0.5,2.6-0.8,4.4-0.8c1.2,0,2.4,0.2,3.5,0.5c1.2,0.3,2.2,0.7,3,1.3l-1.1,2.8c-0.9-0.5-1.8-0.9-2.7-1.2
	c-0.9-0.3-1.8-0.4-2.7-0.4c-1.5,0-2.5,0.2-3.2,0.7c-0.7,0.5-1.1,1.1-1.1,1.9c0,0.6,0.2,1,0.6,1.4c0.4,0.3,0.9,0.6,1.5,0.8
	c0.6,0.2,1.5,0.4,2.5,0.7c1.5,0.3,2.7,0.7,3.6,1.1c0.9,0.4,1.7,0.9,2.4,1.7c0.7,0.8,1,1.8,1,3c0,1.1-0.3,2.1-0.9,3
	c-0.6,0.9-1.5,1.6-2.7,2.1C277.2,53.3,275.8,53.6,274.1,53.6L274.1,53.6z"/>
<path class="st1" d="M289.4,36.8h-6.5v-3.1h16.7v3.1h-6.5v16.6h-3.7C289.4,53.3,289.4,36.8,289.4,36.8z"/>
<path class="st1" d="M315,53.3l-4-5.8c-0.2,0-0.4,0-0.8,0h-4.4v5.7h-3.6V33.7h8.1c1.7,0,3.2,0.3,4.5,0.8c1.3,0.6,2.2,1.4,2.9,2.4
	c0.7,1,1,2.3,1,3.7s-0.4,2.7-1.1,3.8s-1.8,1.9-3.1,2.4l4.5,6.5H315z M314.9,40.7c0-1.3-0.4-2.2-1.2-2.9c-0.8-0.7-2-1-3.6-1h-4.3v7.8
	h4.3c1.6,0,2.8-0.3,3.6-1C314.5,42.9,314.9,41.9,314.9,40.7L314.9,40.7z"/>
<path class="st1" d="M322.4,33.7h3.6v19.7h-3.6V33.7z"/>
<path class="st1" d="M345.1,43.1c1.1,0.4,1.9,1,2.6,1.8c0.6,0.8,1,1.9,1,3.1c0,1.7-0.7,3-2,3.9c-1.3,0.9-3.2,1.4-5.7,1.4h-9.8V33.7
	h9.2c2.3,0,4.1,0.5,5.4,1.4c1.2,0.9,1.9,2.2,1.9,3.7c0,1-0.2,1.8-0.7,2.6S345.9,42.7,345.1,43.1L345.1,43.1z M334.8,36.5V42h5.2
	c1.3,0,2.3-0.2,2.9-0.7c0.7-0.5,1-1.1,1-2s-0.4-1.6-1-2c-0.7-0.5-1.7-0.7-2.9-0.7H334.8z M340.7,50.5c2.8,0,4.2-0.9,4.2-2.8
	s-1.4-2.8-4.2-2.8h-5.9v5.7L340.7,50.5L340.7,50.5z"/>
<path class="st1" d="M360.8,53.6c-2.7,0-4.8-0.8-6.4-2.3c-1.5-1.5-2.3-3.7-2.3-6.6V33.7h3.6v11c0,3.9,1.7,5.8,5,5.8s5-1.9,5-5.8v-11
	h3.6v11.1c0,2.8-0.8,5-2.3,6.6C365.6,52.9,363.5,53.6,360.8,53.6L360.8,53.6z"/>
<path class="st1" d="M374.3,33.7h3.6v19.7h-3.6V33.7z"/>
<path class="st1" d="M383,33.7h8.6c2.1,0,4,0.4,5.6,1.2c1.6,0.8,2.9,2,3.8,3.5c0.9,1.5,1.4,3.2,1.4,5.2s-0.5,3.7-1.4,5.2
	c-0.9,1.5-2.2,2.6-3.8,3.5c-1.6,0.8-3.5,1.2-5.6,1.2H383V33.7L383,33.7z M391.5,50.3c1.4,0,2.7-0.3,3.8-0.8c1.1-0.5,1.9-1.3,2.5-2.3
	c0.6-1,0.9-2.2,0.9-3.6s-0.3-2.5-0.9-3.5c-0.6-1-1.4-1.8-2.5-2.4c-1.1-0.5-2.4-0.8-3.8-0.8h-4.8v13.5L391.5,50.3L391.5,50.3z"/>
<path class="st1" d="M415.2,53.6c-2,0-3.8-0.4-5.4-1.3c-1.6-0.9-2.9-2.1-3.8-3.6c-0.9-1.5-1.4-3.3-1.4-5.2s0.5-3.7,1.4-5.2
	c0.9-1.5,2.2-2.8,3.8-3.6s3.4-1.3,5.4-1.3s3.8,0.4,5.4,1.3c1.6,0.9,2.9,2.1,3.8,3.6c0.9,1.5,1.4,3.3,1.4,5.2s-0.5,3.7-1.4,5.2
	c-0.9,1.5-2.2,2.7-3.8,3.6C419,53.2,417.2,53.6,415.2,53.6L415.2,53.6z M415.2,50.4c1.3,0,2.5-0.3,3.5-0.9c1-0.6,1.9-1.4,2.5-2.5
	c0.6-1.1,0.9-2.3,0.9-3.6s-0.3-2.5-0.9-3.6c-0.6-1-1.4-1.9-2.5-2.5c-1-0.6-2.2-0.9-3.5-0.9s-2.5,0.3-3.6,0.9c-1,0.6-1.9,1.4-2.5,2.5
	c-0.6,1.1-0.9,2.2-0.9,3.6s0.3,2.5,0.9,3.6c0.6,1.1,1.4,1.9,2.5,2.5C412.7,50.1,413.9,50.4,415.2,50.4z"/>
<path class="st1" d="M442.4,53.3l-4-5.8c-0.2,0-0.4,0-0.8,0h-4.4v5.7h-3.6V33.7h8.1c1.7,0,3.2,0.3,4.5,0.8c1.3,0.6,2.2,1.4,2.9,2.4
	c0.7,1,1,2.3,1,3.7s-0.4,2.7-1.1,3.8s-1.8,1.9-3.1,2.4l4.5,6.5H442.4z M442.3,40.7c0-1.3-0.4-2.2-1.2-2.9c-0.8-0.7-2-1-3.6-1h-4.3
	v7.8h4.3c1.6,0,2.8-0.3,3.6-1C441.9,42.9,442.3,41.9,442.3,40.7L442.3,40.7z"/>
<path class="st1" d="M462.6,48.8h-9.8l-1.9,4.6H447l8.9-19.7h3.6l8.9,19.7h-3.8L462.6,48.8L462.6,48.8z M461.4,45.9l-3.7-8.6
	l-3.7,8.6H461.4z"/>
<path class="st1" d="M254.3,79.3l0-13l-6.5,10.8h-1.6l-6.5-10.6v12.9h-3.5V59.7h3l7.8,13l7.7-13h3l0,19.7H254.3L254.3,79.3z"/>
<path class="st1" d="M275.6,74.8h-9.8l-1.9,4.6h-3.8l8.9-19.7h3.6l8.9,19.7h-3.8L275.6,74.8L275.6,74.8z M274.4,71.9l-3.7-8.6
	l-3.7,8.6H274.4z"/>
<path class="st1" d="M296.6,79.3l-4-5.8c-0.2,0-0.4,0-0.8,0h-4.4v5.7h-3.6V59.7h8.1c1.7,0,3.2,0.3,4.5,0.8c1.3,0.6,2.2,1.4,2.9,2.4
	c0.7,1,1,2.3,1,3.7s-0.4,2.7-1.1,3.8s-1.8,1.9-3.1,2.4l4.5,6.5C300.5,79.3,296.6,79.3,296.6,79.3z M296.5,66.7
	c0-1.3-0.4-2.2-1.2-2.9c-0.8-0.7-2-1-3.6-1h-4.3v7.8h4.3c1.6,0,2.8-0.3,3.6-1C296.1,68.9,296.5,67.9,296.5,66.7L296.5,66.7z"/>
<path class="st1" d="M316.8,74.8h-9.8l-1.9,4.6h-3.8l8.9-19.7h3.6l8.9,19.7h-3.8L316.8,74.8L316.8,74.8z M315.5,71.9l-3.7-8.6
	l-3.7,8.6H315.5z"/>
<path class="st1" d="M342.8,59.7l-8.6,19.7h-3.6L322,59.7h4l6.6,15.2l6.6-15.2H342.8L342.8,59.7z"/>
<path class="st1" d="M345.1,59.7h3.6v19.7h-3.6V59.7z"/>
<path class="st1" d="M353.8,59.7h3.6v16.6h10.3v3.1h-13.9V59.7L353.8,59.7z"/>
<path class="st1" d="M370.5,59.7h3.6v16.6h10.3v3.1h-13.9V59.7L370.5,59.7z"/>
<path class="st1" d="M399.8,74.8H390l-1.9,4.6h-3.8l8.9-19.7h3.6l8.9,19.7h-3.8L399.8,74.8L399.8,74.8z M398.6,71.9l-3.7-8.6
	l-3.7,8.6H398.6z"/>
</svg>
