<?xml version="1.0" encoding="UTF-8" standalone="no"?>
<svg
   xmlns:dc="http://purl.org/dc/elements/1.1/"
   xmlns:cc="http://creativecommons.org/ns#"
   xmlns:rdf="http://www.w3.org/1999/02/22-rdf-syntax-ns#"
   xmlns:svg="http://www.w3.org/2000/svg"
   xmlns="http://www.w3.org/2000/svg"
   xmlns:sodipodi="http://sodipodi.sourceforge.net/DTD/sodipodi-0.dtd"
   xmlns:inkscape="http://www.inkscape.org/namespaces/inkscape"
   width="210mm"
   height="297mm"
   viewBox="0 0 210 297"
   version="1.1"
   id="svg8"
   inkscape:version="1.0.2-2 (e86c870879, 2021-01-15)"
   sodipodi:docname="logo_maravilla1.svg">
  <defs
     id="defs2" />
  <sodipodi:namedview
     id="base"
     pagecolor="#ffffff"
     bordercolor="#666666"
     borderopacity="1.0"
     inkscape:pageopacity="0.0"
     inkscape:pageshadow="2"
     inkscape:zoom="1.4703274"
     inkscape:cx="103.77671"
     inkscape:cy="310.21292"
     inkscape:document-units="mm"
     inkscape:current-layer="layer1"
     inkscape:document-rotation="0"
     showgrid="false"
     inkscape:window-width="1366"
     inkscape:window-height="715"
     inkscape:window-x="-8"
     inkscape:window-y="-8"
     inkscape:window-maximized="1" />
  <metadata
     id="metadata5">
    <rdf:RDF>
      <cc:Work
         rdf:about="">
        <dc:format>image/svg+xml</dc:format>
        <dc:type
           rdf:resource="http://purl.org/dc/dcmitype/StillImage" />
        <dc:title />
      </cc:Work>
    </rdf:RDF>
  </metadata>
  <g
     inkscape:label="Capa 1"
     inkscape:groupmode="layer"
     id="layer1">
    <g
       aria-label="Distribuidora"
       transform="matrix(1.211589,0,0,0.82536239,0,1.0583333)"
       id="text12"
       style="font-style:normal;font-weight:normal;font-size:8.69072px;line-height:1.25;font-family:sans-serif;fill:#ffbd4a;fill-opacity:1;stroke:none;stroke-width:0.217268"
       inkscape:export-xdpi="95.876038"
       inkscape:export-ydpi="95.876038">
      <g
         id="g1027"
         transform="matrix(1.1268222,0,0,1,-1.2666195,1.282265)"
         style="fill:#ffbd4a;fill-opacity:1">
        <path
           d="m 15.3843,88.434735 q 0,0.699603 -0.221613,1.273191 -0.221613,0.573587 -0.625732,0.982051 -0.404118,0.408464 -0.969015,0.634423 -0.564897,0.221613 -1.251464,0.221613 H 9.9873634 v -6.226901 h 2.3291126 q 0.686567,0 1.251464,0.225959 0.564897,0.221613 0.969015,0.634423 0.404119,0.408463 0.625732,0.982051 0.221613,0.573587 0.221613,1.27319 z m -0.864726,0 q 0,-0.573587 -0.156433,-1.025505 -0.156433,-0.451917 -0.443227,-0.764783 -0.286794,-0.312866 -0.695258,-0.47799 -0.408463,-0.165123 -0.90818,-0.165123 h -1.481767 v 4.862457 h 1.481767 q 0.499717,0 0.90818,-0.165123 0.408464,-0.165124 0.695258,-0.473645 0.286794,-0.312865 0.443227,-0.764783 0.156433,-0.451917 0.156433,-1.025505 z"
           style="font-style:normal;font-variant:normal;font-weight:normal;font-stretch:normal;font-family:lato;-inkscape-font-specification:lato;fill:#ffbd4a;fill-opacity:1;stroke-width:0.217268"
           id="path987" />
        <path
           d="m 17.270172,87.144163 v 4.40185 h -0.773474 v -4.40185 z m 0.173814,-1.381824 q 0,0.112979 -0.0478,0.212923 -0.04345,0.0956 -0.12167,0.173814 -0.07387,0.07387 -0.173814,0.117325 -0.09994,0.04345 -0.212923,0.04345 -0.112979,0 -0.212922,-0.04345 -0.0956,-0.04345 -0.173815,-0.117325 -0.07387,-0.07822 -0.117324,-0.173814 -0.04345,-0.09994 -0.04345,-0.212923 0,-0.112979 0.04345,-0.212923 0.04345,-0.104288 0.117324,-0.178159 0.07822,-0.07822 0.173815,-0.12167 0.09994,-0.04345 0.212922,-0.04345 0.11298,0 0.212923,0.04345 0.09994,0.04345 0.173814,0.12167 0.07822,0.07387 0.12167,0.178159 0.0478,0.09994 0.0478,0.212923 z"
           style="font-style:normal;font-variant:normal;font-weight:normal;font-stretch:normal;font-family:lato;-inkscape-font-specification:lato;fill:#ffbd4a;fill-opacity:1;stroke-width:0.217268"
           id="path989" />
        <path
           d="m 21.154911,87.869838 q -0.05214,0.0956 -0.160778,0.0956 -0.06518,0 -0.147742,-0.0478 -0.08256,-0.0478 -0.204232,-0.104288 -0.117325,-0.06083 -0.282448,-0.108634 -0.165124,-0.05214 -0.391083,-0.05214 -0.195541,0 -0.351974,0.05214 -0.156433,0.0478 -0.269412,0.134706 -0.108634,0.08691 -0.169469,0.204232 -0.05649,0.112979 -0.05649,0.247685 0,0.169469 0.0956,0.282449 0.09994,0.112979 0.260722,0.195541 0.160778,0.08256 0.36501,0.147742 0.204232,0.06084 0.417154,0.134706 0.217268,0.06953 0.4215,0.156433 0.204232,0.08691 0.36501,0.217268 0.160779,0.130361 0.256377,0.321557 0.09994,0.18685 0.09994,0.451917 0,0.304176 -0.108634,0.564897 -0.108634,0.256376 -0.321557,0.447572 -0.212922,0.186851 -0.521443,0.295485 -0.30852,0.108634 -0.712639,0.108634 -0.460608,0 -0.834309,-0.147743 -0.373701,-0.152087 -0.634422,-0.386737 l 0.182505,-0.295484 q 0.03476,-0.05649 0.08256,-0.08691 0.0478,-0.03042 0.126015,-0.03042 0.07822,0 0.165124,0.06083 0.08691,0.06083 0.208577,0.134706 0.126015,0.07387 0.29983,0.134707 0.178159,0.06083 0.443226,0.06083 0.225959,0 0.395428,-0.05649 0.169469,-0.06083 0.282449,-0.160778 0.112979,-0.09994 0.165123,-0.230304 0.05649,-0.130361 0.05649,-0.278104 0,-0.182505 -0.09994,-0.299829 -0.0956,-0.12167 -0.256377,-0.204232 -0.160778,-0.08691 -0.369355,-0.147742 -0.204232,-0.06518 -0.4215,-0.134707 -0.212923,-0.06952 -0.4215,-0.156433 -0.204232,-0.09125 -0.36501,-0.225958 -0.160779,-0.134706 -0.260722,-0.330248 -0.0956,-0.199886 -0.0956,-0.482335 0,-0.25203 0.104289,-0.482335 0.104289,-0.234649 0.304175,-0.408463 0.199887,-0.17816 0.491026,-0.282449 0.291139,-0.104288 0.66484,-0.104288 0.434536,0 0.777819,0.139051 0.347629,0.134706 0.59966,0.373701 z"
           style="font-style:normal;font-variant:normal;font-weight:normal;font-stretch:normal;font-family:lato;-inkscape-font-specification:lato;fill:#ffbd4a;fill-opacity:1;stroke-width:0.217268"
           id="path991" />
        <path
           d="m 23.740384,91.615539 q -0.521443,0 -0.803891,-0.291139 -0.278103,-0.29114 -0.278103,-0.838655 v -2.694123 h -0.530134 q -0.06953,0 -0.117325,-0.03911 -0.0478,-0.04345 -0.0478,-0.130361 V 87.31363 l 0.72133,-0.09125 0.17816,-1.360098 q 0.0087,-0.06518 0.05649,-0.104288 0.0478,-0.04345 0.12167,-0.04345 h 0.391083 v 1.516531 h 1.260154 v 0.560551 h -1.260154 v 2.641979 q 0,0.278103 0.134706,0.412809 0.134706,0.134706 0.347629,0.134706 0.12167,0 0.208577,-0.03042 0.09125,-0.03476 0.156433,-0.07387 0.06518,-0.03911 0.108634,-0.06952 0.0478,-0.03476 0.08256,-0.03476 0.06084,0 0.108634,0.07387 l 0.225959,0.369356 q -0.199887,0.18685 -0.482335,0.295484 -0.282449,0.104289 -0.582279,0.104289 z"
           style="font-style:normal;font-variant:normal;font-weight:normal;font-stretch:normal;font-family:lato;-inkscape-font-specification:lato;fill:#ffbd4a;fill-opacity:1;stroke-width:0.217268"
           id="path993" />
        <path
           d="m 25.64799,91.546013 v -4.40185 h 0.443227 q 0.126016,0 0.173815,0.0478 0.0478,0.0478 0.06518,0.165124 l 0.05214,0.686567 q 0.225959,-0.460608 0.556206,-0.716984 0.334593,-0.260722 0.782165,-0.260722 0.182505,0 0.330247,0.04345 0.147743,0.03911 0.273758,0.112979 l -0.09994,0.577933 q -0.03042,0.108634 -0.134706,0.108634 -0.06084,0 -0.186851,-0.03911 -0.126015,-0.04345 -0.351974,-0.04345 -0.404118,0 -0.677876,0.234649 -0.269412,0.23465 -0.451917,0.682222 v 2.802757 z"
           style="font-style:normal;font-variant:normal;font-weight:normal;font-stretch:normal;font-family:lato;-inkscape-font-specification:lato;fill:#ffbd4a;fill-opacity:1;stroke-width:0.217268"
           id="path995" />
        <path
           d="m 30.010731,87.144163 v 4.40185 h -0.773474 v -4.40185 z m 0.173814,-1.381824 q 0,0.112979 -0.0478,0.212923 -0.04345,0.0956 -0.121671,0.173814 -0.07387,0.07387 -0.173814,0.117325 -0.09994,0.04345 -0.212923,0.04345 -0.112979,0 -0.212922,-0.04345 -0.0956,-0.04345 -0.173815,-0.117325 -0.07387,-0.07822 -0.117324,-0.173814 -0.04345,-0.09994 -0.04345,-0.212923 0,-0.112979 0.04345,-0.212923 0.04345,-0.104288 0.117324,-0.178159 0.07822,-0.07822 0.173815,-0.12167 0.09994,-0.04345 0.212922,-0.04345 0.11298,0 0.212923,0.04345 0.09994,0.04345 0.173814,0.12167 0.07822,0.07387 0.121671,0.178159 0.0478,0.09994 0.0478,0.212923 z"
           style="font-style:normal;font-variant:normal;font-weight:normal;font-stretch:normal;font-family:lato;-inkscape-font-specification:lato;fill:#ffbd4a;fill-opacity:1;stroke-width:0.217268"
           id="path997" />
        <path
           d="m 31.401234,91.546013 v -6.400715 h 0.777819 v 2.633288 q 0.273758,-0.317211 0.625732,-0.508407 0.356319,-0.195541 0.812582,-0.195541 0.382392,0 0.690912,0.143397 0.308521,0.143396 0.525789,0.43019 0.217268,0.282449 0.334593,0.703948 0.117324,0.417155 0.117324,0.96467 0,0.486681 -0.130361,0.90818 -0.13036,0.417155 -0.378046,0.725676 -0.24334,0.304175 -0.59966,0.482335 -0.351974,0.173814 -0.7952,0.173814 -0.425846,0 -0.725675,-0.165124 -0.295485,-0.165123 -0.517098,-0.460608 l -0.03911,0.399773 q -0.03476,0.165124 -0.199886,0.165124 z m 1.964102,-3.854334 q -0.378046,0 -0.66484,0.173814 -0.282448,0.173815 -0.521443,0.491026 v 2.129226 q 0.208577,0.286794 0.460608,0.404119 0.256376,0.117324 0.569242,0.117324 0.617041,0 0.947289,-0.438881 0.330247,-0.438881 0.330247,-1.251464 0,-0.43019 -0.07822,-0.738711 -0.07387,-0.30852 -0.217268,-0.504062 -0.143397,-0.199886 -0.351975,-0.291139 -0.208577,-0.09125 -0.473644,-0.09125 z"
           style="font-style:normal;font-variant:normal;font-weight:normal;font-stretch:normal;font-family:lato;-inkscape-font-specification:lato;fill:#ffbd4a;fill-opacity:1;stroke-width:0.217268"
           id="path999" />
        <path
           d="m 36.902442,87.144163 v 2.807103 q 0,0.499716 0.230304,0.773474 0.230304,0.273758 0.695258,0.273758 0.338938,0 0.638768,-0.160779 0.299829,-0.160778 0.55186,-0.447572 v -3.245984 h 0.773474 v 4.40185 h -0.460608 q -0.165124,0 -0.208577,-0.160778 l -0.06083,-0.473645 q -0.286794,0.317212 -0.643113,0.512753 -0.35632,0.191196 -0.816928,0.191196 -0.360665,0 -0.638768,-0.117325 -0.273758,-0.12167 -0.460608,-0.338938 -0.186851,-0.217268 -0.282449,-0.525789 -0.09125,-0.30852 -0.09125,-0.682221 v -2.807103 z"
           style="font-style:normal;font-variant:normal;font-weight:normal;font-stretch:normal;font-family:lato;-inkscape-font-specification:lato;fill:#ffbd4a;fill-opacity:1;stroke-width:0.217268"
           id="path1001" />
        <path
           d="m 41.925677,87.144163 v 4.40185 h -0.773474 v -4.40185 z m 0.173814,-1.381824 q 0,0.112979 -0.0478,0.212923 -0.04345,0.0956 -0.12167,0.173814 -0.07387,0.07387 -0.173814,0.117325 -0.09994,0.04345 -0.212923,0.04345 -0.112979,0 -0.212923,-0.04345 -0.0956,-0.04345 -0.173814,-0.117325 -0.07387,-0.07822 -0.117325,-0.173814 -0.04345,-0.09994 -0.04345,-0.212923 0,-0.112979 0.04345,-0.212923 0.04345,-0.104288 0.117325,-0.178159 0.07822,-0.07822 0.173814,-0.12167 0.09994,-0.04345 0.212923,-0.04345 0.112979,0 0.212923,0.04345 0.09994,0.04345 0.173814,0.12167 0.07822,0.07387 0.12167,0.178159 0.0478,0.09994 0.0478,0.212923 z"
           style="font-style:normal;font-variant:normal;font-weight:normal;font-stretch:normal;font-family:lato;-inkscape-font-specification:lato;fill:#ffbd4a;fill-opacity:1;stroke-width:0.217268"
           id="path1003" />
        <path
           d="m 46.38835,91.546013 q -0.165123,0 -0.208577,-0.160778 l -0.06953,-0.53448 q -0.282448,0.343284 -0.647458,0.551861 -0.360665,0.204232 -0.829964,0.204232 -0.378046,0 -0.686567,-0.143397 -0.30852,-0.147742 -0.525788,-0.430191 -0.217268,-0.282448 -0.334593,-0.703948 -0.117325,-0.4215 -0.117325,-0.969015 0,-0.48668 0.130361,-0.903835 0.130361,-0.4215 0.373701,-0.73002 0.247686,-0.308521 0.59966,-0.482335 0.351974,-0.17816 0.799546,-0.17816 0.404118,0 0.690912,0.139051 0.286794,0.134707 0.512753,0.382392 v -2.442092 h 0.773474 v 6.400715 z m -1.499149,-0.564897 q 0.378047,0 0.660495,-0.173814 0.286794,-0.173815 0.525789,-0.491026 V 88.18705 q -0.212923,-0.286794 -0.469299,-0.399773 -0.252031,-0.117325 -0.560552,-0.117325 -0.617041,0 -0.947288,0.438881 -0.330248,0.438882 -0.330248,1.251464 0,0.430191 0.07387,0.738711 0.07387,0.304175 0.217268,0.504062 0.143396,0.195541 0.351974,0.286794 0.208577,0.09125 0.477989,0.09125 z"
           style="font-style:normal;font-variant:normal;font-weight:normal;font-stretch:normal;font-family:lato;-inkscape-font-specification:lato;fill:#ffbd4a;fill-opacity:1;stroke-width:0.217268"
           id="path1005" />
        <path
           d="m 49.9298,87.074638 q 0.482335,0 0.869072,0.160778 0.391082,0.160778 0.660494,0.456263 0.273758,0.295484 0.417155,0.716984 0.147742,0.417155 0.147742,0.934252 0,0.521444 -0.147742,0.938598 -0.143397,0.417155 -0.417155,0.712639 -0.269412,0.295485 -0.660494,0.456263 -0.386737,0.156433 -0.869072,0.156433 -0.482335,0 -0.873418,-0.156433 -0.386737,-0.160778 -0.660494,-0.456263 -0.273758,-0.295484 -0.4215,-0.712639 -0.147742,-0.417154 -0.147742,-0.938598 0,-0.517097 0.147742,-0.934252 0.147742,-0.4215 0.4215,-0.716984 0.273757,-0.295485 0.660494,-0.456263 0.391083,-0.160778 0.873418,-0.160778 z m 0,3.928205 q 0.651804,0 0.97336,-0.434536 0.321557,-0.438881 0.321557,-1.221046 0,-0.78651 -0.321557,-1.225392 -0.321556,-0.438881 -0.97336,-0.438881 -0.330248,0 -0.573588,0.112979 -0.24334,0.11298 -0.408464,0.325902 -0.160778,0.212923 -0.24334,0.525789 -0.07822,0.30852 -0.07822,0.699603 0,0.391082 0.07822,0.699603 0.08256,0.30852 0.24334,0.521443 0.165124,0.208577 0.408464,0.321557 0.24334,0.112979 0.573588,0.112979 z"
           style="font-style:normal;font-variant:normal;font-weight:normal;font-stretch:normal;font-family:lato;-inkscape-font-specification:lato;fill:#ffbd4a;fill-opacity:1;stroke-width:0.217268"
           id="path1007" />
        <path
           d="m 52.980241,91.546013 v -4.40185 h 0.443227 q 0.126015,0 0.173814,0.0478 0.0478,0.0478 0.06518,0.165124 l 0.05214,0.686567 q 0.225959,-0.460608 0.556206,-0.716984 0.334593,-0.260722 0.782165,-0.260722 0.182505,0 0.330247,0.04345 0.147742,0.03911 0.273758,0.112979 l -0.09994,0.577933 q -0.03042,0.108634 -0.134706,0.108634 -0.06084,0 -0.18685,-0.03911 -0.126016,-0.04345 -0.351974,-0.04345 -0.404119,0 -0.677876,0.234649 -0.269413,0.23465 -0.451918,0.682222 v 2.802757 z"
           style="font-style:normal;font-variant:normal;font-weight:normal;font-stretch:normal;font-family:lato;-inkscape-font-specification:lato;fill:#ffbd4a;fill-opacity:1;stroke-width:0.217268"
           id="path1009" />
        <path
           d="m 59.550416,91.546013 h -0.343284 q -0.112979,0 -0.182505,-0.03476 -0.06953,-0.03476 -0.09125,-0.147742 l -0.08691,-0.408464 q -0.173814,0.156433 -0.338938,0.282448 -0.165123,0.12167 -0.347629,0.208578 -0.182505,0.08256 -0.391082,0.126015 -0.204232,0.04345 -0.456263,0.04345 -0.256376,0 -0.482335,-0.06953 -0.221613,-0.07387 -0.386737,-0.217268 -0.165123,-0.143397 -0.265067,-0.360665 -0.0956,-0.221613 -0.0956,-0.521443 0,-0.260722 0.143397,-0.499717 0.143397,-0.24334 0.460609,-0.43019 0.321556,-0.186851 0.838654,-0.304175 0.517098,-0.12167 1.2645,-0.139052 V 88.73022 q 0,-0.512753 -0.221614,-0.773474 -0.217268,-0.265067 -0.647458,-0.265067 -0.282449,0 -0.47799,0.07387 -0.191196,0.06953 -0.334593,0.160778 -0.139051,0.08691 -0.24334,0.160778 -0.09994,0.06953 -0.199886,0.06953 -0.07822,0 -0.139052,-0.03911 -0.05649,-0.04345 -0.09125,-0.104289 L 56.295741,87.76555 q 0.36501,-0.351974 0.78651,-0.525789 0.4215,-0.173814 0.934253,-0.173814 0.369355,0 0.656149,0.12167 0.286794,0.12167 0.482335,0.338938 0.195541,0.217268 0.295484,0.525789 0.09994,0.30852 0.09994,0.677876 z m -2.007557,-0.473644 q 0.204232,0 0.373701,-0.03911 0.169469,-0.04345 0.317212,-0.117324 0.152087,-0.07822 0.286793,-0.186851 0.139052,-0.108634 0.269413,-0.247685 v -0.916871 q -0.53448,0.01738 -0.908181,0.08691 -0.3737,0.06518 -0.60835,0.173814 -0.234649,0.108634 -0.343283,0.256377 -0.104289,0.147742 -0.104289,0.330247 0,0.173814 0.05649,0.29983 0.05649,0.126015 0.152087,0.208577 0.0956,0.07822 0.225959,0.117325 0.130361,0.03476 0.282448,0.03476 z"
           style="font-style:normal;font-variant:normal;font-weight:normal;font-stretch:normal;font-family:lato;-inkscape-font-specification:lato;fill:#ffbd4a;fill-opacity:1;stroke-width:0.217268"
           id="path1011" />
      </g>
    </g>
    <g
       aria-label="MARAVILLA"
       id="text16"
       style="font-style:normal;font-weight:normal;font-size:10.5833px;line-height:1.25;font-family:sans-serif;fill:#ff0000;fill-opacity:1;stroke:none;stroke-width:0.264583"
       transform="matrix(1.0291317,0,0,1,3.4689696,0.88554421)"
       inkscape:export-xdpi="95.876038"
       inkscape:export-ydpi="95.876038">
      <path
         d="m 15.334136,85.677474 -0.01058,-4.444986 -2.18016,3.661822 h -0.772581 l -2.169577,-3.566572 v 4.349736 H 8.5925767 v -7.40831 h 1.4181613 l 2.772826,4.603736 2.730491,-4.603736 h 1.407579 l 0.02117,7.40831 z"
         style="font-style:normal;font-variant:normal;font-weight:bold;font-stretch:normal;font-family:Montserrat;-inkscape-font-specification:'Montserrat Bold';fill:#ff0000;fill-opacity:1;stroke-width:0.264583"
         id="path18" />
      <path
         d="m 23.324535,84.089979 h -3.439572 l -0.656165,1.587495 h -1.756827 l 3.301989,-7.40831 h 1.693328 l 3.312573,7.40831 H 23.9807 Z m -0.539748,-1.301746 -1.174746,-2.836324 -1.174747,2.836324 z"
         style="font-style:normal;font-variant:normal;font-weight:bold;font-stretch:normal;font-family:Montserrat;-inkscape-font-specification:'Montserrat Bold';fill:#ff0000;fill-opacity:1;stroke-width:0.264583"
         id="path20" />
      <path
         d="m 31.27258,85.677474 -1.428745,-2.063743 h -0.08467 -1.492245 v 2.063743 h -1.714495 v -7.40831 h 3.20674 q 0.984247,0 1.703911,0.328083 0.730248,0.328082 1.12183,0.93133 0.391582,0.603248 0.391582,1.428745 0,0.825498 -0.402165,1.428746 -0.391582,0.592665 -1.12183,0.910164 l 1.661578,2.381242 z m -0.03175,-4.720152 q 0,-0.624414 -0.402165,-0.952497 -0.402166,-0.338665 -1.174746,-0.338665 h -1.396996 v 2.582325 h 1.396996 q 0.77258,0 1.174746,-0.338666 0.402165,-0.338665 0.402165,-0.952497 z"
         style="font-style:normal;font-variant:normal;font-weight:bold;font-stretch:normal;font-family:Montserrat;-inkscape-font-specification:'Montserrat Bold';fill:#ff0000;fill-opacity:1;stroke-width:0.264583"
         id="path22" />
      <path
         d="M 39.210043,84.089979 H 35.77047 l -0.656164,1.587495 h -1.756828 l 3.30199,-7.40831 h 1.693328 l 3.312572,7.40831 h -1.799161 z m -0.539748,-1.301746 -1.174747,-2.836324 -1.174746,2.836324 z"
         style="font-style:normal;font-variant:normal;font-weight:bold;font-stretch:normal;font-family:Montserrat;-inkscape-font-specification:'Montserrat Bold';fill:#ff0000;fill-opacity:1;stroke-width:0.264583"
         id="path24" />
      <path
         d="m 49.15833,78.269164 -3.206739,7.40831 h -1.693328 l -3.196157,-7.40831 h 1.852078 l 2.254242,5.29165 2.285993,-5.29165 z"
         style="font-style:normal;font-variant:normal;font-weight:bold;font-stretch:normal;font-family:Montserrat;-inkscape-font-specification:'Montserrat Bold';fill:#ff0000;fill-opacity:1;stroke-width:0.264583"
         id="path26" />
      <path
         d="m 49.772132,78.269164 h 1.714495 v 7.40831 h -1.714495 z"
         style="font-style:normal;font-variant:normal;font-weight:bold;font-stretch:normal;font-family:Montserrat;-inkscape-font-specification:'Montserrat Bold';fill:#ff0000;fill-opacity:1;stroke-width:0.264583"
         id="path28" />
      <path
         d="m 53.243446,78.269164 h 1.714494 v 6.011315 h 3.714738 v 1.396995 h -5.429232 z"
         style="font-style:normal;font-variant:normal;font-weight:bold;font-stretch:normal;font-family:Montserrat;-inkscape-font-specification:'Montserrat Bold';fill:#ff0000;fill-opacity:1;stroke-width:0.264583"
         id="path30" />
      <path
         d="m 59.635738,78.269164 h 1.714494 v 6.011315 h 3.714738 v 1.396995 h -5.429232 z"
         style="font-style:normal;font-variant:normal;font-weight:bold;font-stretch:normal;font-family:Montserrat;-inkscape-font-specification:'Montserrat Bold';fill:#ff0000;fill-opacity:1;stroke-width:0.264583"
         id="path32" />
      <path
         d="m 70.970419,84.089979 h -3.439573 l -0.656164,1.587495 h -1.756828 l 3.30199,-7.40831 h 1.693328 l 3.312572,7.40831 h -1.799161 z m -0.539748,-1.301746 -1.174747,-2.836324 -1.174746,2.836324 z"
         style="font-style:normal;font-variant:normal;font-weight:bold;font-stretch:normal;font-family:Montserrat;-inkscape-font-specification:'Montserrat Bold';fill:#ff0000;fill-opacity:1;stroke-width:0.264583"
         id="path34" />
    </g>
    <g
       id="g948"
       transform="matrix(0.03215974,0,0,0.03301862,82.369785,74.495221)"
       inkscape:export-xdpi="95.876038"
       inkscape:export-ydpi="95.876038">
      <path
         d="M 176,312 V 151.494 a 16,16 0 0 0 -5.757,-12.292 L 128,104 H 80 L 37.757,139.2 A 16,16 0 0 0 32,151.494 V 312 a 16,16 0 0 0 16,16 16,16 0 0 0 -16,16 16,16 0 0 0 16,16 16,16 0 0 0 -16,16 16,16 0 0 0 16,16 16,16 0 0 0 -16,16 16,16 0 0 0 16,16 16,16 0 0 0 -16,16 v 16 a 32,32 0 0 0 32,32 h 80 a 32,32 0 0 0 32,-32 v -16 a 16,16 0 0 0 -16,-16 16,16 0 0 0 16,-16 16,16 0 0 0 -16,-16 16,16 0 0 0 16,-16 16,16 0 0 0 -16,-16 16,16 0 0 0 16,-16 16,16 0 0 0 -16,-16 16,16 0 0 0 16,-16 z"
         fill="#ffd33a"
         id="path899" />
      <path
         d="M 480,216 V 165.892 A 16,16 0 0 0 471.938,152 L 368,104 H 320 L 216.062,152 A 16,16 0 0 0 208,165.892 V 216 a 16,16 0 0 0 16,16 16,16 0 0 0 -16,16 16,16 0 0 0 16,16 16,16 0 0 0 -16,16 16,16 0 0 0 16,16 16,16 0 0 0 -16,16 16,16 0 0 0 16,16 16,16 0 0 0 -16,16 16,16 0 0 0 16,16 16,16 0 0 0 -16,16 16,16 0 0 0 16,16 16,16 0 0 0 -16,16 16,16 0 0 0 16,16 16,16 0 0 0 -16,16 v 16 a 32,32 0 0 0 32,32 h 208 a 32,32 0 0 0 32,-32 v -16 a 16,16 0 0 0 -16,-16 16,16 0 0 0 16,-16 16,16 0 0 0 -16,-16 16,16 0 0 0 16,-16 16,16 0 0 0 -16,-16 16,16 0 0 0 16,-16 16,16 0 0 0 -16,-16 16,16 0 0 0 16,-16 16,16 0 0 0 -16,-16 16,16 0 0 0 16,-16 16,16 0 0 0 -16,-16 16,16 0 0 0 16,-16 16,16 0 0 0 -16,-16 16,16 0 0 0 16,-16 z"
         fill="#ffd33a"
         id="path901" />
      <path
         d="m 88,24 h 32 a 16,16 0 0 1 16,16 V 72 H 72 V 40 A 16,16 0 0 1 88,24 Z"
         fill="#ea9f26"
         id="path903" />
      <path
         d="m 80,72 h 48 v 32 H 80 Z"
         fill="#f2c837"
         id="path905" />
      <path
         d="M 32,168 H 176 V 296 H 32 Z"
         fill="#ea9f26"
         id="path907" />
      <path
         d="m 104,200 -5.839,10.38 C 94.173,217.47 88,224 84.212,230.62 82.06,234.381 80,238.191 80,242.667 c 0,12.131 10.207,21.9 24,21.308 13.793,0.589 24,-9.177 24,-21.308 0,-4.476 -2.06,-8.286 -4.212,-12.047 C 120,224 113.827,217.47 109.839,210.38 Z"
         fill="#f2c837"
         id="path909" />
      <path
         d="m 328,24 h 32 a 16,16 0 0 1 16,16 V 72 H 312 V 40 a 16,16 0 0 1 16,-16 z"
         fill="#ea9f26"
         id="path911" />
      <path
         d="m 320,72 h 48 v 32 h -48 z"
         fill="#f2c837"
         id="path913" />
      <path
         d="M 240,224 H 448 V 368 H 240 Z"
         fill="#ea9f26"
         id="path915" />
      <path
         d="m 344,264 -5.839,10.38 C 334.173,281.47 328,288 324.212,294.62 322.06,298.381 320,302.191 320,306.667 c 0,12.131 10.207,21.9 24,21.308 13.793,0.589 24,-9.177 24,-21.308 0,-4.476 -2.06,-8.286 -4.212,-12.047 C 360,288 353.827,281.47 349.839,274.38 Z"
         fill="#f2c837"
         id="path917" />
      <path
         d="m 24,456 a 40.045,40.045 0 0 0 40,40 h 80 a 40.045,40.045 0 0 0 40,-40 v -16 a 23.9,23.9 0 0 0 -6.131,-16 23.943,23.943 0 0 0 0,-32 23.943,23.943 0 0 0 0,-32 23.943,23.943 0 0 0 0,-32 A 23.9,23.9 0 0 0 184,312 V 151.494 a 23.937,23.937 0 0 0 -8.635,-18.437 L 136,100.253 V 80 a 8,8 0 0 0 8,-8 V 40 A 24.028,24.028 0 0 0 120,16 H 88 A 24.028,24.028 0 0 0 64,40 v 32 a 8,8 0 0 0 8,8 v 20.253 l -39.365,32.8 A 23.937,23.937 0 0 0 24,151.494 V 312 a 23.9,23.9 0 0 0 6.131,16 23.943,23.943 0 0 0 0,32 23.943,23.943 0 0 0 0,32 23.943,23.943 0 0 0 0,32 A 23.9,23.9 0 0 0 24,440 Z M 80,40 a 8.009,8.009 0 0 1 8,-8 h 32 a 8.009,8.009 0 0 1 8,8 V 64 H 80 Z m 40,40 V 96 H 88 V 80 Z m -80,71.494 a 7.978,7.978 0 0 1 2.878,-6.146 L 82.9,112 h 42.2 l 40.017,33.348 A 7.976,7.976 0 0 1 168,151.494 V 160 H 40 Z M 40,176 H 168 V 288 H 40 Z m 0,128 h 128 v 8 a 8.009,8.009 0 0 1 -8,8 H 48 a 8.009,8.009 0 0 1 -8,-8 z m 8,32 h 112 a 8,8 0 0 1 0,16 H 48 a 8,8 0 0 1 0,-16 z m 0,32 h 112 a 8,8 0 0 1 0,16 H 48 a 8,8 0 0 1 0,-16 z m 0,32 h 112 a 8,8 0 0 1 0,16 H 48 a 8,8 0 0 1 0,-16 z m -8,40 a 8.009,8.009 0 0 1 8,-8 h 112 a 8.009,8.009 0 0 1 8,8 v 16 a 24.027,24.027 0 0 1 -24,24 H 64 A 24.027,24.027 0 0 1 40,456 Z"
         id="path919" />
      <path
         d="m 123.511,216.172 a 91.625,91.625 0 0 1 -6.7,-9.714 l -5.839,-10.38 a 8,8 0 0 0 -13.946,0 l -5.839,10.38 a 91.625,91.625 0 0 1 -6.7,9.714 102.943,102.943 0 0 0 -7.22,10.475 C 75.045,230.533 72,235.855 72,242.667 a 28.57,28.57 0 0 0 8.877,20.812 31.567,31.567 0 0 0 23.123,8.501 q 0.6,0.019 1.192,0.02 a 31.323,31.323 0 0 0 21.931,-8.521 28.57,28.57 0 0 0 8.877,-20.812 c 0,-6.812 -3.045,-12.134 -5.269,-16.02 a 102.943,102.943 0 0 0 -7.22,-10.475 z m -7.458,35.755 a 15.643,15.643 0 0 1 -11.711,4.054 q -0.171,-0.006 -0.342,-0.006 -0.171,0 -0.342,0.006 A 15.64,15.64 0 0 1 91.947,251.927 12.712,12.712 0 0 1 88,242.667 c 0,-2.37 1.368,-4.948 3.156,-8.074 a 90.128,90.128 0 0 1 6.122,-8.806 c 2.294,-3.051 4.653,-6.188 6.722,-9.558 2.069,3.37 4.428,6.507 6.722,9.558 a 90.128,90.128 0 0 1 6.122,8.806 c 1.788,3.126 3.156,5.7 3.156,8.074 a 12.712,12.712 0 0 1 -3.947,9.26 z"
         id="path921" />
      <path
         d="m 200,456 a 40.045,40.045 0 0 0 40,40 h 208 a 40.045,40.045 0 0 0 40,-40 v -16 a 23.9,23.9 0 0 0 -6.131,-16 23.943,23.943 0 0 0 0,-32 23.943,23.943 0 0 0 0,-32 23.943,23.943 0 0 0 0,-32 23.943,23.943 0 0 0 0,-32 23.943,23.943 0 0 0 0,-32 23.943,23.943 0 0 0 0,-32 23.9,23.9 0 0 0 6.131,-16 v -50.108 a 24.052,24.052 0 0 0 -12.093,-20.838 c -0.2,-0.115 -0.4,-0.22 -0.614,-0.317 L 376,98.883 V 80 a 8,8 0 0 0 8,-8 V 40 A 24.028,24.028 0 0 0 360,16 h -32 a 24.028,24.028 0 0 0 -24,24 v 32 a 8,8 0 0 0 8,8 v 18.883 l -99.292,45.854 c -0.209,0.1 -0.415,0.2 -0.615,0.317 A 24.052,24.052 0 0 0 200,165.892 V 216 a 23.9,23.9 0 0 0 6.131,16 23.943,23.943 0 0 0 0,32 23.943,23.943 0 0 0 0,32 23.943,23.943 0 0 0 0,32 23.943,23.943 0 0 0 0,32 23.943,23.943 0 0 0 0,32 23.943,23.943 0 0 0 0,32 A 23.9,23.9 0 0 0 200,440 Z M 464,320 h -8 v -16 h 8 a 8,8 0 0 1 0,16 z m 8,24 a 8.009,8.009 0 0 1 -8,8 h -8 v -16 h 8 a 8.009,8.009 0 0 1 8,8 z m -8,-56 h -8 v -16 h 8 a 8,8 0 0 1 0,16 z m 0,-32 h -8 v -16 h 8 a 8,8 0 0 1 0,16 z M 320,40 a 8.009,8.009 0 0 1 8,-8 h 32 a 8.009,8.009 0 0 1 8,8 v 24 h -48 z m 40,40 V 96 H 328 V 80 Z m -144,96 h 168 a 8,8 0 0 0 0,-16 H 218.614 a 7.87,7.87 0 0 1 1.171,-0.907 L 321.758,112 h 44.484 l 101.974,47.093 A 7.922,7.922 0 0 1 469.387,160 H 416 a 8,8 0 0 0 0,16 h 56 v 40 a 8.009,8.009 0 0 1 -8,8 H 224 a 8.009,8.009 0 0 1 -8,-8 z m 224,64 V 352 H 248 V 240 Z m -216,0 h 8 v 16 h -8 a 8,8 0 0 1 0,-16 z m 0,32 h 8 v 16 h -8 a 8,8 0 0 1 0,-16 z m 0,32 h 8 v 16 h -8 a 8,8 0 0 1 0,-16 z m 0,32 h 8 v 16 h -8 a 8,8 0 0 1 0,-16 z m 0,32 h 240 a 8,8 0 0 1 0,16 H 224 a 8,8 0 0 1 0,-16 z m 0,32 h 240 a 8,8 0 0 1 0,16 H 224 a 8,8 0 0 1 0,-16 z m -8,40 a 8.009,8.009 0 0 1 8,-8 h 240 a 8.009,8.009 0 0 1 8,8 v 16 a 24.028,24.028 0 0 1 -24,24 H 240 a 24.028,24.028 0 0 1 -24,-24 z"
         id="path923" />
      <path
         d="m 344,335.98 q 0.6,0.019 1.192,0.02 a 31.325,31.325 0 0 0 21.931,-8.521 28.566,28.566 0 0 0 8.877,-20.812 c 0,-6.813 -3.046,-12.135 -5.269,-16.02 a 103.09,103.09 0 0 0 -7.221,-10.477 91.547,91.547 0 0 1 -6.7,-9.712 l -5.839,-10.38 a 8,8 0 0 0 -13.946,0 l -5.839,10.38 a 91.547,91.547 0 0 1 -6.7,9.712 103.017,103.017 0 0 0 -7.22,10.476 c -2.224,3.886 -5.27,9.208 -5.27,16.021 a 28.566,28.566 0 0 0 8.877,20.812 31.493,31.493 0 0 0 23.127,8.501 z m -12.843,-37.387 a 90.019,90.019 0 0 1 6.122,-8.808 c 2.293,-3.05 4.652,-6.187 6.721,-9.557 2.069,3.37 4.428,6.507 6.721,9.557 a 90.1,90.1 0 0 1 6.123,8.809 c 1.788,3.125 3.156,5.7 3.156,8.073 a 12.708,12.708 0 0 1 -3.947,9.26 15.647,15.647 0 0 1 -11.711,4.054 q -0.171,-0.006 -0.342,-0.006 -0.171,0 -0.342,0.006 a 15.654,15.654 0 0 1 -11.711,-4.054 12.708,12.708 0 0 1 -3.947,-9.26 c 0,-2.367 1.368,-4.948 3.157,-8.074 z"
         id="path925" />
    </g>
    <g
       aria-label="Aceite Comestible"
       id="text952"
       style="font-style:normal;font-weight:normal;font-size:10.5833px;line-height:1.25;font-family:sans-serif;fill:#ffbd4a;fill-opacity:1;stroke:none;stroke-width:0.264583"
       transform="matrix(1.381617,0,0,1,-5.3755352,-1.3917563)"
       inkscape:export-xdpi="95.876038"
       inkscape:export-ydpi="95.876038">
      <path
         d="m 16.162068,93.867683 h -0.47625 q -0.08255,0 -0.13335,-0.04127 -0.0508,-0.04127 -0.0762,-0.104775 l -0.42545,-1.09855 h -2.041525 l -0.42545,1.09855 q -0.02223,0.05715 -0.0762,0.1016 -0.05397,0.04445 -0.13335,0.04445 h -0.47625 l 1.819275,-4.549775 h 0.625475 z m -2.981325,-1.6891 h 1.698625 l -0.714375,-1.851025 q -0.06985,-0.17145 -0.136525,-0.428625 -0.03492,0.130175 -0.06985,0.2413 -0.03175,0.10795 -0.0635,0.1905 z"
         style="font-style:normal;font-variant:normal;font-weight:normal;font-stretch:normal;font-size:6.35px;font-family:Lato;-inkscape-font-specification:Lato;fill:#ffbd4a;fill-opacity:1;stroke-width:0.264583"
         id="path954" />
      <path
         d="m 18.841758,91.222908 q -0.0254,0.03493 -0.0508,0.05397 -0.0254,0.01905 -0.07303,0.01905 -0.04763,0 -0.104775,-0.0381 -0.05397,-0.04127 -0.1397,-0.0889 -0.08573,-0.04762 -0.20955,-0.08572 -0.12065,-0.04127 -0.29845,-0.04127 -0.23495,0 -0.415925,0.08572 -0.180975,0.08255 -0.3048,0.2413 -0.12065,0.15875 -0.18415,0.384175 -0.06033,0.225425 -0.06033,0.504825 0,0.2921 0.06668,0.5207 0.06668,0.225425 0.187325,0.381 0.12065,0.1524 0.2921,0.23495 0.174625,0.07937 0.390525,0.07937 0.206375,0 0.339725,-0.04763 0.13335,-0.0508 0.22225,-0.111125 0.0889,-0.06033 0.14605,-0.10795 0.05715,-0.0508 0.1143,-0.0508 0.07302,0 0.10795,0.05398 l 0.15875,0.206375 q -0.20955,0.257175 -0.523875,0.377825 -0.314325,0.117475 -0.663575,0.117475 -0.301625,0 -0.561975,-0.111125 -0.257175,-0.111125 -0.447675,-0.320675 -0.1905,-0.212725 -0.301625,-0.5207 -0.10795,-0.307975 -0.10795,-0.701675 0,-0.358775 0.09843,-0.663575 0.1016,-0.3048 0.2921,-0.523875 0.193675,-0.22225 0.47625,-0.346075 0.282575,-0.123825 0.6477,-0.123825 0.33655,0 0.5969,0.111125 0.26035,0.10795 0.460375,0.307975 z"
         style="font-style:normal;font-variant:normal;font-weight:normal;font-stretch:normal;font-size:6.35px;font-family:Lato;-inkscape-font-specification:Lato;fill:#ffbd4a;fill-opacity:1;stroke-width:0.264583"
         id="path956" />
      <path
         d="m 20.886452,90.600608 q 0.288925,0 0.5334,0.09843 0.244475,0.09525 0.422275,0.2794 0.1778,0.180975 0.276225,0.45085 0.1016,0.2667 0.1016,0.6096 0,0.13335 -0.02858,0.1778 -0.02858,0.04445 -0.10795,0.04445 h -2.13995 q 0.0063,0.3048 0.08255,0.530225 0.0762,0.225425 0.20955,0.377825 0.13335,0.149225 0.3175,0.225425 0.18415,0.07303 0.41275,0.07303 0.212725,0 0.365125,-0.04763 0.155575,-0.0508 0.2667,-0.10795 0.111125,-0.05715 0.18415,-0.104775 0.0762,-0.0508 0.130175,-0.0508 0.06985,0 0.10795,0.05398 l 0.15875,0.206375 q -0.104775,0.127 -0.250825,0.22225 -0.14605,0.09207 -0.314325,0.1524 -0.1651,0.06033 -0.3429,0.0889 -0.1778,0.03175 -0.352425,0.03175 -0.333375,0 -0.61595,-0.111125 -0.2794,-0.1143 -0.485775,-0.3302 -0.2032,-0.219075 -0.3175,-0.53975 -0.1143,-0.320675 -0.1143,-0.7366 0,-0.33655 0.1016,-0.62865 0.104775,-0.2921 0.29845,-0.504825 0.193675,-0.2159 0.473075,-0.33655 0.2794,-0.123825 0.62865,-0.123825 z m 0.0127,0.415925 q -0.409575,0 -0.644525,0.238125 -0.23495,0.23495 -0.2921,0.65405 h 1.749425 q 0,-0.19685 -0.05398,-0.358775 -0.05397,-0.1651 -0.15875,-0.282575 -0.104775,-0.12065 -0.257175,-0.18415 -0.149225,-0.06668 -0.3429,-0.06668 z"
         style="font-style:normal;font-variant:normal;font-weight:normal;font-stretch:normal;font-size:6.35px;font-family:Lato;-inkscape-font-specification:Lato;fill:#ffbd4a;fill-opacity:1;stroke-width:0.264583"
         id="path958" />
      <path
         d="m 23.569316,90.651408 v 3.216275 h -0.56515 v -3.216275 z m 0.127,-1.00965 q 0,0.08255 -0.03493,0.155575 -0.03175,0.06985 -0.0889,0.127 -0.05397,0.05397 -0.127,0.08572 -0.07303,0.03175 -0.155575,0.03175 -0.08255,0 -0.155575,-0.03175 -0.06985,-0.03175 -0.127,-0.08572 -0.05398,-0.05715 -0.08573,-0.127 -0.03175,-0.07303 -0.03175,-0.155575 0,-0.08255 0.03175,-0.155575 0.03175,-0.0762 0.08573,-0.130175 0.05715,-0.05715 0.127,-0.0889 0.07303,-0.03175 0.155575,-0.03175 0.08255,0 0.155575,0.03175 0.07303,0.03175 0.127,0.0889 0.05715,0.05397 0.0889,0.130175 0.03493,0.07303 0.03493,0.155575 z"
         style="font-style:normal;font-variant:normal;font-weight:normal;font-stretch:normal;font-size:6.35px;font-family:Lato;-inkscape-font-specification:Lato;fill:#ffbd4a;fill-opacity:1;stroke-width:0.264583"
         id="path960" />
      <path
         d="m 25.540982,93.918483 q -0.381,0 -0.587375,-0.212725 -0.2032,-0.212725 -0.2032,-0.612775 v -1.9685 h -0.38735 q -0.0508,0 -0.08573,-0.02858 -0.03493,-0.03175 -0.03493,-0.09525 v -0.225425 l 0.52705,-0.06668 0.130175,-0.993775 q 0.0064,-0.04762 0.04127,-0.0762 0.03493,-0.03175 0.0889,-0.03175 h 0.28575 v 1.108075 h 0.92075 v 0.409575 h -0.92075 v 1.9304 q 0,0.2032 0.09843,0.301625 0.09842,0.09842 0.254,0.09842 0.0889,0 0.1524,-0.02222 0.06668,-0.0254 0.1143,-0.05398 0.04763,-0.02858 0.07938,-0.0508 0.03492,-0.0254 0.06032,-0.0254 0.04445,0 0.07937,0.05398 l 0.1651,0.269875 q -0.14605,0.136525 -0.352425,0.2159 -0.206375,0.0762 -0.42545,0.0762 z"
         style="font-style:normal;font-variant:normal;font-weight:normal;font-stretch:normal;font-size:6.35px;font-family:Lato;-inkscape-font-specification:Lato;fill:#ffbd4a;fill-opacity:1;stroke-width:0.264583"
         id="path962" />
      <path
         d="m 28.207976,90.600608 q 0.288925,0 0.5334,0.09843 0.244475,0.09525 0.422275,0.2794 0.1778,0.180975 0.276225,0.45085 0.1016,0.2667 0.1016,0.6096 0,0.13335 -0.02858,0.1778 -0.02858,0.04445 -0.10795,0.04445 h -2.13995 q 0.0063,0.3048 0.08255,0.530225 0.0762,0.225425 0.20955,0.377825 0.13335,0.149225 0.3175,0.225425 0.18415,0.07303 0.41275,0.07303 0.212725,0 0.365125,-0.04763 0.155575,-0.0508 0.2667,-0.10795 0.111125,-0.05715 0.18415,-0.104775 0.0762,-0.0508 0.130175,-0.0508 0.06985,0 0.10795,0.05398 l 0.15875,0.206375 q -0.104775,0.127 -0.250825,0.22225 -0.14605,0.09207 -0.314325,0.1524 -0.1651,0.06033 -0.3429,0.0889 -0.1778,0.03175 -0.352425,0.03175 -0.333375,0 -0.61595,-0.111125 -0.2794,-0.1143 -0.485775,-0.3302 -0.2032,-0.219075 -0.3175,-0.53975 -0.1143,-0.320675 -0.1143,-0.7366 0,-0.33655 0.1016,-0.62865 0.104775,-0.2921 0.29845,-0.504825 0.193675,-0.2159 0.473075,-0.33655 0.2794,-0.123825 0.62865,-0.123825 z m 0.0127,0.415925 q -0.409575,0 -0.644525,0.238125 -0.23495,0.23495 -0.2921,0.65405 h 1.749425 q 0,-0.19685 -0.05398,-0.358775 -0.05397,-0.1651 -0.15875,-0.282575 -0.104775,-0.12065 -0.257175,-0.18415 -0.149225,-0.06668 -0.3429,-0.06668 z"
         style="font-style:normal;font-variant:normal;font-weight:normal;font-stretch:normal;font-size:6.35px;font-family:Lato;-inkscape-font-specification:Lato;fill:#ffbd4a;fill-opacity:1;stroke-width:0.264583"
         id="path964" />
      <path
         d="m 34.783383,92.927883 q 0.0508,0 0.09208,0.04127 l 0.2413,0.263525 q -0.2794,0.32385 -0.67945,0.504825 -0.396875,0.180975 -0.95885,0.180975 -0.492125,0 -0.892175,-0.168275 -0.40005,-0.17145 -0.682625,-0.47625 -0.282575,-0.307975 -0.43815,-0.7366 -0.155575,-0.428625 -0.155575,-0.942975 0,-0.51435 0.1651,-0.942975 0.168275,-0.428625 0.4699,-0.7366 0.301625,-0.307975 0.720725,-0.47625 0.422275,-0.17145 0.930275,-0.17145 0.50165,0 0.8636,0.155575 0.365125,0.155575 0.6477,0.422275 l -0.200025,0.282575 q -0.02222,0.03175 -0.0508,0.05397 -0.02858,0.01905 -0.08255,0.01905 -0.04127,0 -0.0889,-0.02858 -0.04445,-0.03175 -0.10795,-0.0762 -0.0635,-0.04445 -0.149225,-0.09525 -0.08572,-0.0508 -0.2032,-0.09525 -0.117475,-0.04445 -0.27305,-0.07303 -0.155575,-0.03175 -0.358775,-0.03175 -0.365125,0 -0.669925,0.127 -0.301625,0.123825 -0.5207,0.3556 -0.219075,0.231775 -0.3429,0.56515 -0.12065,0.333375 -0.12065,0.746125 0,0.42545 0.12065,0.758825 0.123825,0.333375 0.333375,0.56515 0.212725,0.2286 0.50165,0.34925 0.288925,0.12065 0.6223,0.12065 0.2032,0 0.365125,-0.02222 0.161925,-0.0254 0.29845,-0.0762 0.1397,-0.0508 0.257175,-0.127 0.12065,-0.07938 0.2413,-0.187325 0.05398,-0.04763 0.104775,-0.04763 z"
         style="font-style:normal;font-variant:normal;font-weight:normal;font-stretch:normal;font-size:6.35px;font-family:Lato;-inkscape-font-specification:Lato;fill:#ffbd4a;fill-opacity:1;stroke-width:0.264583"
         id="path966" />
      <path
         d="m 37.13923,90.600608 q 0.352425,0 0.635,0.117475 0.28575,0.117475 0.4826,0.333375 0.200025,0.2159 0.3048,0.523875 0.10795,0.3048 0.10795,0.682625 0,0.381 -0.10795,0.6858 -0.104775,0.3048 -0.3048,0.5207 -0.19685,0.2159 -0.4826,0.333375 -0.282575,0.1143 -0.635,0.1143 -0.352425,0 -0.638175,-0.1143 -0.282575,-0.117475 -0.4826,-0.333375 -0.200025,-0.2159 -0.307975,-0.5207 -0.10795,-0.3048 -0.10795,-0.6858 0,-0.377825 0.10795,-0.682625 0.10795,-0.307975 0.307975,-0.523875 0.200025,-0.2159 0.4826,-0.333375 0.28575,-0.117475 0.638175,-0.117475 z m 0,2.8702 q 0.47625,0 0.7112,-0.3175 0.23495,-0.320675 0.23495,-0.892175 0,-0.574675 -0.23495,-0.89535 -0.23495,-0.320675 -0.7112,-0.320675 -0.2413,0 -0.4191,0.08255 -0.1778,0.08255 -0.29845,0.238125 -0.117475,0.155575 -0.1778,0.384175 -0.05715,0.225425 -0.05715,0.511175 0,0.28575 0.05715,0.511175 0.06033,0.225425 0.1778,0.381 0.12065,0.1524 0.29845,0.23495 0.1778,0.08255 0.4191,0.08255 z"
         style="font-style:normal;font-variant:normal;font-weight:normal;font-stretch:normal;font-size:6.35px;font-family:Lato;-inkscape-font-specification:Lato;fill:#ffbd4a;fill-opacity:1;stroke-width:0.264583"
         id="path968" />
      <path
         d="m 39.368078,93.867683 v -3.216275 h 0.33655 q 0.12065,0 0.1524,0.117475 l 0.04127,0.3302 q 0.1778,-0.219075 0.396875,-0.358775 0.22225,-0.1397 0.51435,-0.1397 0.327025,0 0.52705,0.180975 0.2032,0.180975 0.2921,0.48895 0.06667,-0.174625 0.174625,-0.301625 0.111125,-0.127 0.24765,-0.20955 0.136525,-0.08255 0.288925,-0.12065 0.155575,-0.0381 0.314325,-0.0381 0.254,0 0.45085,0.08255 0.200025,0.07937 0.33655,0.23495 0.1397,0.155575 0.212725,0.384175 0.07303,0.225425 0.07303,0.517525 v 2.047875 h -0.56515 v -2.047875 q 0,-0.377825 -0.1651,-0.5715 -0.1651,-0.19685 -0.479425,-0.19685 -0.1397,0 -0.2667,0.0508 -0.123825,0.04762 -0.219075,0.142875 -0.09525,0.09525 -0.1524,0.2413 -0.05398,0.142875 -0.05398,0.333375 v 2.047875 h -0.56515 v -2.047875 q 0,-0.38735 -0.155575,-0.57785 -0.155575,-0.1905 -0.454025,-0.1905 -0.20955,0 -0.390525,0.1143 -0.1778,0.111125 -0.327025,0.3048 v 2.397125 z"
         style="font-style:normal;font-variant:normal;font-weight:normal;font-stretch:normal;font-size:6.35px;font-family:Lato;-inkscape-font-specification:Lato;fill:#ffbd4a;fill-opacity:1;stroke-width:0.264583"
         id="path970" />
      <path
         d="m 45.854597,90.600608 q 0.288925,0 0.5334,0.09843 0.244475,0.09525 0.422275,0.2794 0.1778,0.180975 0.276225,0.45085 0.1016,0.2667 0.1016,0.6096 0,0.13335 -0.02857,0.1778 -0.02858,0.04445 -0.10795,0.04445 h -2.13995 q 0.0063,0.3048 0.08255,0.530225 0.0762,0.225425 0.20955,0.377825 0.13335,0.149225 0.3175,0.225425 0.18415,0.07303 0.41275,0.07303 0.212725,0 0.365125,-0.04763 0.155575,-0.0508 0.2667,-0.10795 0.111125,-0.05715 0.18415,-0.104775 0.0762,-0.0508 0.130175,-0.0508 0.06985,0 0.10795,0.05398 l 0.15875,0.206375 q -0.104775,0.127 -0.250825,0.22225 -0.14605,0.09207 -0.314325,0.1524 -0.1651,0.06033 -0.3429,0.0889 -0.1778,0.03175 -0.352425,0.03175 -0.333375,0 -0.61595,-0.111125 -0.2794,-0.1143 -0.485775,-0.3302 -0.2032,-0.219075 -0.3175,-0.53975 -0.1143,-0.320675 -0.1143,-0.7366 0,-0.33655 0.1016,-0.62865 0.104775,-0.2921 0.29845,-0.504825 0.193675,-0.2159 0.473075,-0.33655 0.2794,-0.123825 0.62865,-0.123825 z m 0.0127,0.415925 q -0.409575,0 -0.644525,0.238125 -0.23495,0.23495 -0.2921,0.65405 h 1.749425 q 0,-0.19685 -0.05398,-0.358775 -0.05398,-0.1651 -0.15875,-0.282575 -0.104775,-0.12065 -0.257175,-0.18415 -0.149225,-0.06668 -0.3429,-0.06668 z"
         style="font-style:normal;font-variant:normal;font-weight:normal;font-stretch:normal;font-size:6.35px;font-family:Lato;-inkscape-font-specification:Lato;fill:#ffbd4a;fill-opacity:1;stroke-width:0.264583"
         id="path972" />
      <path
         d="m 49.750311,91.181633 q -0.0381,0.06985 -0.117475,0.06985 -0.04762,0 -0.10795,-0.03492 -0.06032,-0.03493 -0.149225,-0.0762 -0.08573,-0.04445 -0.206375,-0.07938 -0.12065,-0.0381 -0.28575,-0.0381 -0.142875,0 -0.257175,0.0381 -0.1143,0.03493 -0.19685,0.09843 -0.07937,0.0635 -0.123825,0.149225 -0.04127,0.08255 -0.04127,0.180975 0,0.123825 0.06985,0.206375 0.07303,0.08255 0.1905,0.142875 0.117475,0.06032 0.2667,0.10795 0.149225,0.04445 0.3048,0.09842 0.15875,0.0508 0.307975,0.1143 0.149225,0.0635 0.2667,0.15875 0.117475,0.09525 0.187325,0.23495 0.07303,0.136525 0.07303,0.3302 0,0.22225 -0.07937,0.41275 -0.07937,0.187325 -0.23495,0.327025 -0.155575,0.136525 -0.381,0.2159 -0.225425,0.07937 -0.5207,0.07937 -0.33655,0 -0.6096,-0.10795 -0.27305,-0.111125 -0.46355,-0.282575 l 0.13335,-0.2159 q 0.0254,-0.04127 0.06032,-0.0635 0.03493,-0.02223 0.09208,-0.02223 0.05715,0 0.12065,0.04445 0.0635,0.04445 0.1524,0.09843 0.09208,0.05397 0.219075,0.09843 0.130175,0.04445 0.32385,0.04445 0.1651,0 0.288925,-0.04127 0.123825,-0.04445 0.206375,-0.117475 0.08255,-0.07303 0.12065,-0.168275 0.04127,-0.09525 0.04127,-0.2032 0,-0.13335 -0.07303,-0.219075 -0.06985,-0.0889 -0.187325,-0.149225 -0.117475,-0.0635 -0.269875,-0.10795 -0.149225,-0.04762 -0.307975,-0.09842 -0.155575,-0.0508 -0.307975,-0.1143 -0.149225,-0.06668 -0.2667,-0.1651 -0.117475,-0.09842 -0.1905,-0.2413 -0.06985,-0.14605 -0.06985,-0.352425 0,-0.18415 0.0762,-0.352425 0.0762,-0.17145 0.22225,-0.29845 0.14605,-0.130175 0.358775,-0.206375 0.212725,-0.0762 0.485775,-0.0762 0.3175,0 0.568325,0.1016 0.254,0.09843 0.43815,0.27305 z"
         style="font-style:normal;font-variant:normal;font-weight:normal;font-stretch:normal;font-size:6.35px;font-family:Lato;-inkscape-font-specification:Lato;fill:#ffbd4a;fill-opacity:1;stroke-width:0.264583"
         id="path974" />
      <path
         d="m 51.639426,93.918483 q -0.381,0 -0.587375,-0.212725 -0.2032,-0.212725 -0.2032,-0.612775 v -1.9685 h -0.38735 q -0.0508,0 -0.08572,-0.02858 -0.03493,-0.03175 -0.03493,-0.09525 v -0.225425 l 0.52705,-0.06668 0.130175,-0.993775 q 0.0064,-0.04762 0.04128,-0.0762 0.03492,-0.03175 0.0889,-0.03175 h 0.28575 v 1.108075 h 0.92075 v 0.409575 h -0.92075 v 1.9304 q 0,0.2032 0.09842,0.301625 0.09842,0.09842 0.254,0.09842 0.0889,0 0.1524,-0.02222 0.06667,-0.0254 0.1143,-0.05398 0.04762,-0.02858 0.07937,-0.0508 0.03493,-0.0254 0.06032,-0.0254 0.04445,0 0.07937,0.05398 l 0.1651,0.269875 q -0.14605,0.136525 -0.352425,0.2159 -0.206375,0.0762 -0.42545,0.0762 z"
         style="font-style:normal;font-variant:normal;font-weight:normal;font-stretch:normal;font-size:6.35px;font-family:Lato;-inkscape-font-specification:Lato;fill:#ffbd4a;fill-opacity:1;stroke-width:0.264583"
         id="path976" />
      <path
         d="m 53.661896,90.651408 v 3.216275 h -0.56515 v -3.216275 z m 0.127,-1.00965 q 0,0.08255 -0.03493,0.155575 -0.03175,0.06985 -0.0889,0.127 -0.05397,0.05397 -0.127,0.08572 -0.07303,0.03175 -0.155575,0.03175 -0.08255,0 -0.155575,-0.03175 -0.06985,-0.03175 -0.127,-0.08572 -0.05398,-0.05715 -0.08573,-0.127 -0.03175,-0.07303 -0.03175,-0.155575 0,-0.08255 0.03175,-0.155575 0.03175,-0.0762 0.08573,-0.130175 0.05715,-0.05715 0.127,-0.0889 0.07303,-0.03175 0.155575,-0.03175 0.08255,0 0.155575,0.03175 0.07303,0.03175 0.127,0.0889 0.05715,0.05397 0.0889,0.130175 0.03493,0.07303 0.03493,0.155575 z"
         style="font-style:normal;font-variant:normal;font-weight:normal;font-stretch:normal;font-size:6.35px;font-family:Lato;-inkscape-font-specification:Lato;fill:#ffbd4a;fill-opacity:1;stroke-width:0.264583"
         id="path978" />
      <path
         d="m 54.677888,93.867683 v -4.676775 h 0.568325 v 1.92405 q 0.200025,-0.231775 0.4572,-0.371475 0.26035,-0.142875 0.593725,-0.142875 0.2794,0 0.504825,0.104775 0.225425,0.104775 0.384175,0.314325 0.15875,0.206375 0.244475,0.51435 0.08572,0.3048 0.08572,0.70485 0,0.3556 -0.09525,0.663575 -0.09525,0.3048 -0.276225,0.530225 -0.1778,0.22225 -0.43815,0.352425 -0.257175,0.127 -0.581025,0.127 -0.31115,0 -0.530225,-0.12065 -0.2159,-0.12065 -0.377825,-0.33655 l -0.02858,0.2921 q -0.0254,0.12065 -0.14605,0.12065 z m 1.4351,-2.816225 q -0.276225,0 -0.485775,0.127 -0.206375,0.127 -0.381,0.358775 v 1.55575 q 0.1524,0.20955 0.33655,0.295275 0.187325,0.08573 0.415925,0.08573 0.45085,0 0.69215,-0.320675 0.2413,-0.320675 0.2413,-0.9144 0,-0.314325 -0.05715,-0.53975 -0.05398,-0.225425 -0.15875,-0.3683 -0.104775,-0.14605 -0.257175,-0.212725 -0.1524,-0.06668 -0.346075,-0.06668 z"
         style="font-style:normal;font-variant:normal;font-weight:normal;font-stretch:normal;font-size:6.35px;font-family:Lato;-inkscape-font-specification:Lato;fill:#ffbd4a;fill-opacity:1;stroke-width:0.264583"
         id="path980" />
      <path
         d="m 58.837125,89.190908 v 4.676775 h -0.56515 v -4.676775 z"
         style="font-style:normal;font-variant:normal;font-weight:normal;font-stretch:normal;font-size:6.35px;font-family:Lato;-inkscape-font-specification:Lato;fill:#ffbd4a;fill-opacity:1;stroke-width:0.264583"
         id="path982" />
      <path
         d="m 61.107241,90.600608 q 0.288925,0 0.5334,0.09843 0.244475,0.09525 0.422275,0.2794 0.1778,0.180975 0.276225,0.45085 0.1016,0.2667 0.1016,0.6096 0,0.13335 -0.02858,0.1778 -0.02857,0.04445 -0.10795,0.04445 h -2.13995 q 0.0064,0.3048 0.08255,0.530225 0.0762,0.225425 0.20955,0.377825 0.13335,0.149225 0.3175,0.225425 0.18415,0.07303 0.41275,0.07303 0.212725,0 0.365125,-0.04763 0.155575,-0.0508 0.2667,-0.10795 0.111125,-0.05715 0.18415,-0.104775 0.0762,-0.0508 0.130175,-0.0508 0.06985,0 0.10795,0.05398 l 0.15875,0.206375 q -0.104775,0.127 -0.250825,0.22225 -0.14605,0.09207 -0.314325,0.1524 -0.1651,0.06033 -0.3429,0.0889 -0.1778,0.03175 -0.352425,0.03175 -0.333375,0 -0.61595,-0.111125 -0.2794,-0.1143 -0.485775,-0.3302 -0.2032,-0.219075 -0.3175,-0.53975 -0.1143,-0.320675 -0.1143,-0.7366 0,-0.33655 0.1016,-0.62865 0.104775,-0.2921 0.29845,-0.504825 0.193675,-0.2159 0.473075,-0.33655 0.2794,-0.123825 0.62865,-0.123825 z m 0.0127,0.415925 q -0.409575,0 -0.644525,0.238125 -0.23495,0.23495 -0.2921,0.65405 h 1.749425 q 0,-0.19685 -0.05398,-0.358775 -0.05398,-0.1651 -0.15875,-0.282575 -0.104775,-0.12065 -0.257175,-0.18415 -0.149225,-0.06668 -0.3429,-0.06668 z"
         style="font-style:normal;font-variant:normal;font-weight:normal;font-stretch:normal;font-size:6.35px;font-family:Lato;-inkscape-font-specification:Lato;fill:#ffbd4a;fill-opacity:1;stroke-width:0.264583"
         id="path984" />
    </g>
  </g>
</svg>
