<svg xmlns="http://www.w3.org/2000/svg" xmlns:xlink="http://www.w3.org/1999/xlink" width="500" zoomAndPan="magnify" viewBox="0 0 375 374.999991" height="500" preserveAspectRatio="xMidYMid meet" version="1.0"><defs><g/><clipPath id="b06e84e121"><path d="M 7.941406 136.71875 L 93.292969 136.71875 L 93.292969 222.734375 L 7.941406 222.734375 Z M 7.941406 136.71875 " clip-rule="nonzero"/></clipPath><clipPath id="5c031a18d0"><path d="M 93.296875 136.71875 L 180 136.71875 L 180 222.742188 L 93.296875 222.742188 Z M 93.296875 136.71875 " clip-rule="nonzero"/></clipPath></defs><rect x="-37.5" width="450" fill="#ffffff" y="-37.499999" height="449.999989" fill-opacity="1"/><rect x="-37.5" width="450" fill="#ffffff" y="-37.499999" height="449.999989" fill-opacity="1"/><g clip-path="url(#b06e84e121)"><path stroke-linecap="butt" transform="matrix(0.75, 0, 0, 0.75, 7.939673, 136.718662)" fill="none" stroke-linejoin="miter" d="M 0.00231076 0.000117037 L 113.804409 0.000117037 L 113.804409 114.687632 L 0.00231076 114.687632 Z M 0.00231076 0.000117037 " stroke="#000000" stroke-width="6" stroke-opacity="1" stroke-miterlimit="4"/></g><g clip-path="url(#5c031a18d0)"><path fill="#000000" d="M 93.296875 136.71875 L 179.992188 136.71875 L 179.992188 222.742188 L 93.296875 222.742188 Z M 93.296875 136.71875 " fill-opacity="1" fill-rule="nonzero"/></g><g fill="#ff0000" fill-opacity="1"><g transform="translate(15.444697, 209.814807)"><g><path d="M 33.625 -62.1875 C 55.375 -62.1875 66.25 -51.820312 66.25 -31.09375 C 66.25 -10.363281 55.375 0 33.625 0 L 6.6875 0 L 6.6875 -62.1875 Z M 26.671875 -14.921875 L 33.265625 -14.921875 C 41.640625 -14.921875 45.828125 -19.40625 45.828125 -28.375 L 45.828125 -33.8125 C 45.828125 -42.789062 41.640625 -47.28125 33.265625 -47.28125 L 26.671875 -47.28125 Z M 26.671875 -14.921875 "/></g></g></g><g fill="#ffd600" fill-opacity="1"><g transform="translate(94.782142, 208.980961)"><g><path d="M 60.109375 0 L 60.109375 -22.421875 C 60.109375 -25.191406 60.210938 -28.035156 60.421875 -30.953125 C 60.640625 -33.878906 60.867188 -36.335938 61.109375 -38.328125 C 61.347656 -40.316406 61.5 -41.582031 61.5625 -42.125 L 61.1875 -42.125 L 49.71875 0 L 34.078125 0 L 22.5 -42.03125 L 22.140625 -42.03125 C 22.203125 -41.488281 22.367188 -40.238281 22.640625 -38.28125 C 22.910156 -36.320312 23.164062 -33.878906 23.40625 -30.953125 C 23.644531 -28.035156 23.765625 -25.191406 23.765625 -22.421875 L 23.765625 0 L 5.421875 0 L 5.421875 -62.1875 L 33.625 -62.1875 L 43.03125 -26.296875 L 43.390625 -26.296875 L 52.703125 -62.1875 L 79.90625 -62.1875 L 79.90625 0 Z M 60.109375 0 "/></g></g></g><g fill="#000000" fill-opacity="1"><g transform="translate(183.131301, 176.730956)"><g><path d="M 1.984375 -14.75 L 8.4375 -14.75 C 10.007812 -14.75 11.40625 -14.441406 12.625 -13.828125 C 13.84375 -13.222656 14.789062 -12.359375 15.46875 -11.234375 C 16.144531 -10.117188 16.484375 -8.832031 16.484375 -7.375 C 16.484375 -5.914062 16.144531 -4.625 15.46875 -3.5 C 14.789062 -2.382812 13.84375 -1.519531 12.625 -0.90625 C 11.40625 -0.300781 10.007812 0 8.4375 0 L 1.984375 0 Z M 8.3125 -2.3125 C 9.382812 -2.3125 10.332031 -2.519531 11.15625 -2.9375 C 11.976562 -3.351562 12.609375 -3.941406 13.046875 -4.703125 C 13.492188 -5.472656 13.71875 -6.363281 13.71875 -7.375 C 13.71875 -8.382812 13.492188 -9.269531 13.046875 -10.03125 C 12.609375 -10.800781 11.976562 -11.394531 11.15625 -11.8125 C 10.332031 -12.226562 9.382812 -12.4375 8.3125 -12.4375 L 4.71875 -12.4375 L 4.71875 -2.3125 Z M 8.3125 -2.3125 "/></g></g></g><g fill="#000000" fill-opacity="1"><g transform="translate(200.376329, 176.730956)"><g><path d="M 1.984375 -14.75 L 4.71875 -14.75 L 4.71875 0 L 1.984375 0 Z M 1.984375 -14.75 "/></g></g></g><g fill="#000000" fill-opacity="1"><g transform="translate(206.932793, 176.730956)"><g><path d="M 6.5625 0.203125 C 5.414062 0.203125 4.3125 0.0390625 3.25 -0.28125 C 2.195312 -0.601562 1.359375 -1.03125 0.734375 -1.5625 L 1.6875 -3.6875 C 2.289062 -3.207031 3.03125 -2.816406 3.90625 -2.515625 C 4.789062 -2.210938 5.675781 -2.0625 6.5625 -2.0625 C 7.65625 -2.0625 8.472656 -2.238281 9.015625 -2.59375 C 9.554688 -2.945312 9.828125 -3.410156 9.828125 -3.984375 C 9.828125 -4.398438 9.675781 -4.742188 9.375 -5.015625 C 9.070312 -5.296875 8.6875 -5.515625 8.21875 -5.671875 C 7.757812 -5.828125 7.128906 -6.003906 6.328125 -6.203125 C 5.203125 -6.460938 4.289062 -6.722656 3.59375 -6.984375 C 2.894531 -7.253906 2.296875 -7.675781 1.796875 -8.25 C 1.296875 -8.820312 1.046875 -9.59375 1.046875 -10.5625 C 1.046875 -11.375 1.265625 -12.113281 1.703125 -12.78125 C 2.148438 -13.445312 2.820312 -13.976562 3.71875 -14.375 C 4.613281 -14.769531 5.707031 -14.96875 7 -14.96875 C 7.894531 -14.96875 8.773438 -14.851562 9.640625 -14.625 C 10.515625 -14.40625 11.269531 -14.082031 11.90625 -13.65625 L 11.046875 -11.53125 C 10.398438 -11.90625 9.722656 -12.191406 9.015625 -12.390625 C 8.316406 -12.585938 7.640625 -12.6875 6.984375 -12.6875 C 5.898438 -12.6875 5.09375 -12.503906 4.5625 -12.140625 C 4.03125 -11.773438 3.765625 -11.289062 3.765625 -10.6875 C 3.765625 -10.257812 3.914062 -9.910156 4.21875 -9.640625 C 4.519531 -9.378906 4.90625 -9.171875 5.375 -9.015625 C 5.84375 -8.867188 6.472656 -8.695312 7.265625 -8.5 C 8.367188 -8.238281 9.269531 -7.972656 9.96875 -7.703125 C 10.675781 -7.429688 11.273438 -7.015625 11.765625 -6.453125 C 12.265625 -5.890625 12.515625 -5.128906 12.515625 -4.171875 C 12.515625 -3.359375 12.289062 -2.617188 11.84375 -1.953125 C 11.40625 -1.296875 10.738281 -0.769531 9.84375 -0.375 C 8.945312 0.0078125 7.851562 0.203125 6.5625 0.203125 Z M 6.5625 0.203125 "/></g></g></g><g fill="#000000" fill-opacity="1"><g transform="translate(220.02467, 176.730956)"><g><path d="M 4.96875 -12.4375 L 0.078125 -12.4375 L 0.078125 -14.75 L 12.609375 -14.75 L 12.609375 -12.4375 L 7.71875 -12.4375 L 7.71875 0 L 4.96875 0 Z M 4.96875 -12.4375 "/></g></g></g><g fill="#000000" fill-opacity="1"><g transform="translate(232.547327, 176.730956)"><g><path d="M 11.640625 0 L 8.625 -4.328125 C 8.5 -4.304688 8.304688 -4.296875 8.046875 -4.296875 L 4.71875 -4.296875 L 4.71875 0 L 1.984375 0 L 1.984375 -14.75 L 8.046875 -14.75 C 9.328125 -14.75 10.441406 -14.535156 11.390625 -14.109375 C 12.335938 -13.691406 13.0625 -13.085938 13.5625 -12.296875 C 14.070312 -11.515625 14.328125 -10.582031 14.328125 -9.5 C 14.328125 -8.394531 14.054688 -7.441406 13.515625 -6.640625 C 12.972656 -5.835938 12.195312 -5.238281 11.1875 -4.84375 L 14.59375 0 Z M 11.578125 -9.5 C 11.578125 -10.445312 11.265625 -11.171875 10.640625 -11.671875 C 10.023438 -12.179688 9.117188 -12.4375 7.921875 -12.4375 L 4.71875 -12.4375 L 4.71875 -6.5625 L 7.921875 -6.5625 C 9.117188 -6.5625 10.023438 -6.816406 10.640625 -7.328125 C 11.265625 -7.835938 11.578125 -8.5625 11.578125 -9.5 Z M 11.578125 -9.5 "/></g></g></g><g fill="#000000" fill-opacity="1"><g transform="translate(247.789568, 176.730956)"><g><path d="M 1.984375 -14.75 L 4.71875 -14.75 L 4.71875 0 L 1.984375 0 Z M 1.984375 -14.75 "/></g></g></g><g fill="#000000" fill-opacity="1"><g transform="translate(254.346031, 176.730956)"><g><path d="M 12.4375 -7.671875 C 13.25 -7.398438 13.894531 -6.953125 14.375 -6.328125 C 14.851562 -5.703125 15.09375 -4.925781 15.09375 -4 C 15.09375 -2.726562 14.597656 -1.742188 13.609375 -1.046875 C 12.628906 -0.347656 11.195312 0 9.3125 0 L 1.984375 0 L 1.984375 -14.75 L 8.890625 -14.75 C 10.640625 -14.75 11.984375 -14.40625 12.921875 -13.71875 C 13.859375 -13.039062 14.328125 -12.109375 14.328125 -10.921875 C 14.328125 -10.191406 14.160156 -9.546875 13.828125 -8.984375 C 13.492188 -8.421875 13.03125 -7.984375 12.4375 -7.671875 Z M 4.71875 -12.609375 L 4.71875 -8.53125 L 8.59375 -8.53125 C 9.550781 -8.53125 10.285156 -8.703125 10.796875 -9.046875 C 11.316406 -9.390625 11.578125 -9.894531 11.578125 -10.5625 C 11.578125 -11.238281 11.316406 -11.75 10.796875 -12.09375 C 10.285156 -12.4375 9.550781 -12.609375 8.59375 -12.609375 Z M 9.140625 -2.15625 C 11.265625 -2.15625 12.328125 -2.863281 12.328125 -4.28125 C 12.328125 -5.695312 11.265625 -6.40625 9.140625 -6.40625 L 4.71875 -6.40625 L 4.71875 -2.15625 Z M 9.140625 -2.15625 "/></g></g></g><g fill="#000000" fill-opacity="1"><g transform="translate(270.22073, 176.730956)"><g><path d="M 8.328125 0.203125 C 6.285156 0.203125 4.695312 -0.363281 3.5625 -1.5 C 2.425781 -2.644531 1.859375 -4.285156 1.859375 -6.421875 L 1.859375 -14.75 L 4.59375 -14.75 L 4.59375 -6.53125 C 4.59375 -3.632812 5.84375 -2.1875 8.34375 -2.1875 C 10.832031 -2.1875 12.078125 -3.632812 12.078125 -6.53125 L 12.078125 -14.75 L 14.78125 -14.75 L 14.78125 -6.421875 C 14.78125 -4.285156 14.210938 -2.644531 13.078125 -1.5 C 11.941406 -0.363281 10.359375 0.203125 8.328125 0.203125 Z M 8.328125 0.203125 "/></g></g></g><g fill="#000000" fill-opacity="1"><g transform="translate(286.685734, 176.730956)"><g><path d="M 1.984375 -14.75 L 4.71875 -14.75 L 4.71875 0 L 1.984375 0 Z M 1.984375 -14.75 "/></g></g></g><g fill="#000000" fill-opacity="1"><g transform="translate(293.242202, 176.730956)"><g><path d="M 1.984375 -14.75 L 8.4375 -14.75 C 10.007812 -14.75 11.40625 -14.441406 12.625 -13.828125 C 13.84375 -13.222656 14.789062 -12.359375 15.46875 -11.234375 C 16.144531 -10.117188 16.484375 -8.832031 16.484375 -7.375 C 16.484375 -5.914062 16.144531 -4.625 15.46875 -3.5 C 14.789062 -2.382812 13.84375 -1.519531 12.625 -0.90625 C 11.40625 -0.300781 10.007812 0 8.4375 0 L 1.984375 0 Z M 8.3125 -2.3125 C 9.382812 -2.3125 10.332031 -2.519531 11.15625 -2.9375 C 11.976562 -3.351562 12.609375 -3.941406 13.046875 -4.703125 C 13.492188 -5.472656 13.71875 -6.363281 13.71875 -7.375 C 13.71875 -8.382812 13.492188 -9.269531 13.046875 -10.03125 C 12.609375 -10.800781 11.976562 -11.394531 11.15625 -11.8125 C 10.332031 -12.226562 9.382812 -12.4375 8.3125 -12.4375 L 4.71875 -12.4375 L 4.71875 -2.3125 Z M 8.3125 -2.3125 "/></g></g></g><g fill="#000000" fill-opacity="1"><g transform="translate(310.487234, 176.730956)"><g><path d="M 8.875 0.203125 C 7.375 0.203125 6.019531 -0.117188 4.8125 -0.765625 C 3.601562 -1.421875 2.648438 -2.328125 1.953125 -3.484375 C 1.265625 -4.648438 0.921875 -5.945312 0.921875 -7.375 C 0.921875 -8.8125 1.265625 -10.109375 1.953125 -11.265625 C 2.648438 -12.421875 3.601562 -13.328125 4.8125 -13.984375 C 6.019531 -14.640625 7.375 -14.96875 8.875 -14.96875 C 10.375 -14.96875 11.726562 -14.640625 12.9375 -13.984375 C 14.144531 -13.328125 15.09375 -12.421875 15.78125 -11.265625 C 16.476562 -10.117188 16.828125 -8.820312 16.828125 -7.375 C 16.828125 -5.925781 16.476562 -4.625 15.78125 -3.46875 C 15.09375 -2.320312 14.144531 -1.421875 12.9375 -0.765625 C 11.726562 -0.117188 10.375 0.203125 8.875 0.203125 Z M 8.875 -2.1875 C 9.851562 -2.1875 10.734375 -2.40625 11.515625 -2.84375 C 12.304688 -3.289062 12.925781 -3.910156 13.375 -4.703125 C 13.832031 -5.503906 14.0625 -6.394531 14.0625 -7.375 C 14.0625 -8.363281 13.832031 -9.253906 13.375 -10.046875 C 12.925781 -10.835938 12.304688 -11.453125 11.515625 -11.890625 C 10.734375 -12.335938 9.851562 -12.5625 8.875 -12.5625 C 7.882812 -12.5625 6.992188 -12.335938 6.203125 -11.890625 C 5.421875 -11.453125 4.804688 -10.835938 4.359375 -10.046875 C 3.910156 -9.253906 3.6875 -8.363281 3.6875 -7.375 C 3.6875 -6.394531 3.910156 -5.503906 4.359375 -4.703125 C 4.804688 -3.910156 5.421875 -3.289062 6.203125 -2.84375 C 6.992188 -2.40625 7.882812 -2.1875 8.875 -2.1875 Z M 8.875 -2.1875 "/></g></g></g><g fill="#000000" fill-opacity="1"><g transform="translate(328.069581, 176.730956)"><g><path d="M 11.640625 0 L 8.625 -4.328125 C 8.5 -4.304688 8.304688 -4.296875 8.046875 -4.296875 L 4.71875 -4.296875 L 4.71875 0 L 1.984375 0 L 1.984375 -14.75 L 8.046875 -14.75 C 9.328125 -14.75 10.441406 -14.535156 11.390625 -14.109375 C 12.335938 -13.691406 13.0625 -13.085938 13.5625 -12.296875 C 14.070312 -11.515625 14.328125 -10.582031 14.328125 -9.5 C 14.328125 -8.394531 14.054688 -7.441406 13.515625 -6.640625 C 12.972656 -5.835938 12.195312 -5.238281 11.1875 -4.84375 L 14.59375 0 Z M 11.578125 -9.5 C 11.578125 -10.445312 11.265625 -11.171875 10.640625 -11.671875 C 10.023438 -12.179688 9.117188 -12.4375 7.921875 -12.4375 L 4.71875 -12.4375 L 4.71875 -6.5625 L 7.921875 -6.5625 C 9.117188 -6.5625 10.023438 -6.816406 10.640625 -7.328125 C 11.265625 -7.835938 11.578125 -8.5625 11.578125 -9.5 Z M 11.578125 -9.5 "/></g></g></g><g fill="#000000" fill-opacity="1"><g transform="translate(343.311828, 176.730956)"><g><path d="M 11.546875 -3.421875 L 4.171875 -3.421875 L 2.71875 0 L -0.109375 0 L 6.53125 -14.75 L 9.234375 -14.75 L 15.890625 0 L 13.03125 0 Z M 10.640625 -5.5625 L 7.859375 -12.015625 L 5.09375 -5.5625 Z M 10.640625 -5.5625 "/></g></g></g><g fill="#000000" fill-opacity="1"><g transform="translate(183.131301, 196.230954)"><g><path d="M 15.53125 0 L 15.515625 -9.78125 L 10.671875 -1.6875 L 9.4375 -1.6875 L 4.59375 -9.65625 L 4.59375 0 L 1.984375 0 L 1.984375 -14.75 L 4.234375 -14.75 L 10.09375 -4.96875 L 15.84375 -14.75 L 18.109375 -14.75 L 18.125 0 Z M 15.53125 0 "/></g></g></g><g fill="#000000" fill-opacity="1"><g transform="translate(203.095903, 196.230954)"><g><path d="M 11.546875 -3.421875 L 4.171875 -3.421875 L 2.71875 0 L -0.109375 0 L 6.53125 -14.75 L 9.234375 -14.75 L 15.890625 0 L 13.03125 0 Z M 10.640625 -5.5625 L 7.859375 -12.015625 L 5.09375 -5.5625 Z M 10.640625 -5.5625 "/></g></g></g><g fill="#000000" fill-opacity="1"><g transform="translate(218.717621, 196.230954)"><g><path d="M 11.640625 0 L 8.625 -4.328125 C 8.5 -4.304688 8.304688 -4.296875 8.046875 -4.296875 L 4.71875 -4.296875 L 4.71875 0 L 1.984375 0 L 1.984375 -14.75 L 8.046875 -14.75 C 9.328125 -14.75 10.441406 -14.535156 11.390625 -14.109375 C 12.335938 -13.691406 13.0625 -13.085938 13.5625 -12.296875 C 14.070312 -11.515625 14.328125 -10.582031 14.328125 -9.5 C 14.328125 -8.394531 14.054688 -7.441406 13.515625 -6.640625 C 12.972656 -5.835938 12.195312 -5.238281 11.1875 -4.84375 L 14.59375 0 Z M 11.578125 -9.5 C 11.578125 -10.445312 11.265625 -11.171875 10.640625 -11.671875 C 10.023438 -12.179688 9.117188 -12.4375 7.921875 -12.4375 L 4.71875 -12.4375 L 4.71875 -6.5625 L 7.921875 -6.5625 C 9.117188 -6.5625 10.023438 -6.816406 10.640625 -7.328125 C 11.265625 -7.835938 11.578125 -8.5625 11.578125 -9.5 Z M 11.578125 -9.5 "/></g></g></g><g fill="#000000" fill-opacity="1"><g transform="translate(233.959866, 196.230954)"><g><path d="M 11.546875 -3.421875 L 4.171875 -3.421875 L 2.71875 0 L -0.109375 0 L 6.53125 -14.75 L 9.234375 -14.75 L 15.890625 0 L 13.03125 0 Z M 10.640625 -5.5625 L 7.859375 -12.015625 L 5.09375 -5.5625 Z M 10.640625 -5.5625 "/></g></g></g><g fill="#000000" fill-opacity="1"><g transform="translate(249.581583, 196.230954)"><g><path d="M 15.46875 -14.75 L 9.046875 0 L 6.34375 0 L -0.109375 -14.75 L 2.859375 -14.75 L 7.78125 -3.375 L 12.734375 -14.75 Z M 15.46875 -14.75 "/></g></g></g><g fill="#000000" fill-opacity="1"><g transform="translate(264.781653, 196.230954)"><g><path d="M 1.984375 -14.75 L 4.71875 -14.75 L 4.71875 0 L 1.984375 0 Z M 1.984375 -14.75 "/></g></g></g><g fill="#000000" fill-opacity="1"><g transform="translate(271.338116, 196.230954)"><g><path d="M 1.984375 -14.75 L 4.71875 -14.75 L 4.71875 -2.3125 L 12.4375 -2.3125 L 12.4375 0 L 1.984375 0 Z M 1.984375 -14.75 "/></g></g></g><g fill="#000000" fill-opacity="1"><g transform="translate(283.797533, 196.230954)"><g><path d="M 1.984375 -14.75 L 4.71875 -14.75 L 4.71875 -2.3125 L 12.4375 -2.3125 L 12.4375 0 L 1.984375 0 Z M 1.984375 -14.75 "/></g></g></g><g fill="#000000" fill-opacity="1"><g transform="translate(296.256955, 196.230954)"><g><path d="M 11.546875 -3.421875 L 4.171875 -3.421875 L 2.71875 0 L -0.109375 0 L 6.53125 -14.75 L 9.234375 -14.75 L 15.890625 0 L 13.03125 0 Z M 10.640625 -5.5625 L 7.859375 -12.015625 L 5.09375 -5.5625 Z M 10.640625 -5.5625 "/></g></g></g></svg>