<?xml version="1.0" standalone="no"?>
<!DOCTYPE svg PUBLIC "-//W3C//DTD SVG 20010904//EN"
 "http://www.w3.org/TR/2001/REC-SVG-20010904/DTD/svg10.dtd">
<svg version="1.0" xmlns="http://www.w3.org/2000/svg"
 width="700.000000pt" height="700.000000pt" viewBox="0 0 700.000000 700.000000"
 preserveAspectRatio="xMidYMid meet">
<metadata>
Created by potrace 1.11, written by Peter Selinger 2001-2013
</metadata>
<g transform="translate(0.000000,700.000000) scale(0.100000,-0.100000)"
fill="#000000" stroke="none">
<path d="M1092 6761 c-66 -23 -117 -63 -159 -125 -54 -79 -58 -106 -58 -393 0
-249 1 -263 21 -290 11 -15 35 -32 52 -38 l32 -9 0 -141 -1 -140 -279 -233
c-154 -128 -294 -251 -310 -274 -63 -86 -60 -30 -60 -1289 0 -1253 -3 -1192
56 -1278 22 -32 22 -37 9 -56 -45 -60 -60 -109 -60 -200 0 -91 17 -146 62
-197 13 -14 12 -21 -11 -55 -75 -113 -75 -253 0 -366 l25 -38 -20 -25 c-76
-97 -79 -265 -6 -375 l26 -40 -25 -32 c-50 -66 -58 -118 -54 -329 4 -181 6
-197 31 -263 66 -170 213 -298 390 -340 94 -22 1256 -22 1342 0 191 49 338
189 398 380 19 61 22 93 22 255 0 179 -1 187 -26 240 -15 30 -33 64 -42 75
-13 17 -13 22 9 50 71 94 75 261 9 359 -30 45 -31 50 -5 86 70 98 68 275 -3
364 l-24 29 33 54 c38 64 55 148 44 219 -8 50 -50 147 -69 158 -5 4 6 32 25
63 18 31 37 72 41 92 5 20 8 551 8 1181 0 934 -2 1152 -13 1185 -30 86 -72
130 -358 366 l-282 234 -1 143 c-1 135 0 142 19 142 11 0 34 13 52 29 l33 29
0 284 c0 269 -1 285 -22 330 -30 66 -96 133 -162 165 l-56 28 -290 2 c-261 3
-295 1 -343 -16z m599 -217 c50 -25 59 -63 59 -249 l0 -165 -325 0 -325 0 0
183 c0 157 3 185 18 203 33 41 49 43 300 44 201 0 248 -3 273 -16z m-51 -744
l0 -110 -220 0 -220 0 0 103 c0 57 3 107 7 110 3 4 102 7 220 7 l213 0 0 -110z
m342 -558 c150 -126 282 -239 293 -251 15 -18 19 -37 20 -99 l0 -77 -872 -3
-873 -2 0 80 c0 73 2 82 28 109 15 17 146 129 292 250 l265 221 287 0 286 0
274 -228z m308 -1412 l0 -760 -870 0 -870 0 0 760 0 760 870 0 870 0 0 -760z
m10 -1037 c0 -68 -17 -119 -47 -143 -25 -20 -35 -20 -832 -20 -749 0 -808 2
-827 18 -34 27 -44 56 -44 126 l0 66 875 0 875 0 0 -47z m-89 -393 c42 -12 66
-36 78 -76 12 -45 -5 -92 -42 -114 -31 -19 -55 -20 -831 -20 l-798 0 -35 35
c-33 33 -35 39 -30 81 5 52 27 81 71 93 44 13 1542 14 1587 1z m24 -445 c79
-38 79 -152 -1 -190 -29 -14 -124 -15 -829 -13 l-797 3 -29 33 c-48 54 -38
125 24 162 31 19 57 20 815 20 686 0 788 -2 817 -15z m12 -445 c60 -36 62
-123 3 -175 -22 -20 -38 -20 -804 -23 -537 -2 -793 0 -818 8 -49 14 -78 52
-78 102 0 32 7 47 34 74 l34 34 799 0 c773 0 799 -1 830 -20z m13 -448 c36
-37 44 -89 37 -248 -4 -102 -9 -131 -30 -177 -34 -74 -88 -131 -155 -164 l-57
-28 -635 0 -635 0 -51 27 c-76 40 -107 70 -145 140 l-34 63 -3 163 c-3 114 0
173 9 193 24 61 -10 58 867 59 l804 0 28 -28z"/>
<path d="M1374 4366 c-23 -10 -45 -38 -84 -107 -29 -52 -85 -139 -124 -194
-110 -154 -145 -214 -168 -289 -54 -176 36 -363 219 -453 68 -34 82 -37 181
-41 86 -3 119 0 168 16 169 53 281 191 292 359 7 116 -33 208 -176 402 -34 45
-87 127 -117 182 -31 55 -66 106 -79 114 -34 22 -78 27 -112 11z m203 -546
c79 -118 82 -184 10 -256 -46 -45 -94 -64 -168 -64 -165 0 -259 134 -186 264
14 26 63 99 107 162 l82 114 56 -78 c31 -42 76 -106 99 -142z"/>
<path d="M4380 6764 c-65 -24 -125 -68 -160 -119 -57 -83 -60 -102 -60 -400 0
-260 1 -273 21 -299 11 -14 35 -29 52 -34 l32 -8 0 -127 0 -128 -678 -313
c-373 -173 -696 -326 -718 -340 -49 -33 -93 -92 -116 -159 -16 -47 -18 -92
-18 -442 0 -214 3 -406 8 -426 4 -20 22 -60 40 -91 l34 -55 -24 -29 c-71 -89
-73 -266 -3 -364 26 -36 25 -41 -5 -86 -67 -98 -63 -265 9 -359 22 -28 22 -33
9 -50 -86 -112 -88 -276 -3 -394 16 -24 17 -31 6 -40 -7 -6 -26 -39 -41 -72
-48 -108 -33 -242 38 -334 13 -17 13 -22 -9 -50 -72 -95 -74 -266 -4 -365 26
-36 25 -41 -5 -86 -66 -97 -62 -270 8 -358 l24 -29 -34 -55 c-44 -74 -48 -99
-48 -297 1 -193 15 -261 80 -370 71 -121 217 -226 353 -254 37 -8 498 -11
1535 -11 1606 0 1541 -2 1657 54 123 59 227 172 277 301 25 66 27 82 31 263 4
211 -4 263 -54 329 l-25 32 26 40 c73 110 70 278 -6 375 l-20 25 25 38 c74
112 74 254 1 365 -23 35 -25 42 -12 56 81 93 87 280 12 381 -24 33 -24 36 -8
60 49 74 58 105 58 196 0 91 -17 146 -62 197 -13 14 -11 21 12 56 73 111 71
279 -6 376 l-20 25 25 38 c74 112 74 254 1 365 -23 35 -25 42 -12 56 8 10 25
37 38 62 l24 45 0 430 c0 428 0 430 -23 481 -13 28 -44 72 -71 98 -42 42 -113
77 -737 365 l-689 318 -3 131 c-2 127 -2 132 18 132 11 0 34 13 52 29 l33 29
0 284 c0 269 -1 285 -22 330 -30 66 -96 133 -162 165 l-56 28 -290 2 c-245 2
-297 0 -335 -13z m617 -237 l28 -27 3 -185 3 -185 -325 0 -326 0 0 181 0 181
34 34 35 35 260 -3 261 -3 27 -28z m-77 -727 l0 -110 -215 0 -215 0 0 110 0
110 215 0 215 0 0 -110z m779 -651 c383 -177 700 -325 705 -330 6 -5 -142 -9
-367 -9 -270 0 -383 -3 -402 -12 -51 -23 -72 -109 -39 -157 35 -49 55 -51 469
-51 l385 0 0 -291 0 -291 -34 -34 -34 -34 -1673 0 c-1640 0 -1675 0 -1706 20
-21 13 -35 31 -42 57 -7 22 -11 149 -11 306 l0 267 1155 0 c1266 0 1208 -3
1239 59 26 50 21 88 -18 127 l-34 34 -1148 0 c-719 0 -1144 4 -1139 9 6 6 163
81 350 167 187 87 498 231 690 320 l350 163 304 0 305 1 695 -321z m-2529
-1539 l0 -110 -61 0 c-100 0 -152 38 -152 110 0 72 51 109 151 110 l62 0 0
-110z m2840 -655 l0 -765 -1310 0 -1310 0 0 765 0 765 1310 0 1310 0 0 -765z
m380 750 c67 -34 81 -111 31 -167 -27 -30 -34 -33 -105 -36 l-76 -4 0 111 0
111 60 0 c35 0 74 -7 90 -15z m-3220 -536 l0 -112 -75 5 c-83 5 -108 20 -131
74 -10 23 -11 41 -3 68 15 54 56 76 142 76 l67 0 0 -111z m3246 77 c25 -25 34
-43 34 -67 0 -77 -54 -119 -152 -119 l-58 0 0 110 0 110 71 0 c67 0 73 -2 105
-34z m-3246 -511 l0 -105 -74 0 c-59 0 -78 4 -100 21 -50 40 -51 123 -1 167
22 19 38 22 101 22 l74 0 0 -105z m3229 91 c45 -24 65 -91 40 -139 -23 -44
-50 -57 -126 -57 l-73 0 0 105 0 105 65 0 c38 0 78 -6 94 -14z m-3229 -526 l0
-110 -67 0 c-86 0 -127 22 -142 76 -7 27 -7 45 3 68 23 55 62 74 154 75 l52 1
0 -110z m3203 99 c45 -12 77 -57 77 -107 0 -25 -9 -43 -34 -68 -32 -32 -38
-34 -105 -34 l-71 0 0 110 0 110 48 0 c26 0 64 -5 85 -11z m17 -444 c67 -34
81 -111 31 -167 l-29 -33 -1672 -3 c-1494 -2 -1675 -1 -1704 13 -79 38 -80
151 -2 189 27 14 219 16 1689 16 1452 0 1662 -2 1687 -15z m27 -460 c33 -33
35 -39 30 -81 -6 -53 -27 -80 -76 -95 -24 -7 -569 -9 -1692 -7 -1641 3 -1657
3 -1679 23 -59 52 -57 139 3 175 31 20 66 20 1705 20 l1674 0 35 -35z m-18
-420 c46 -23 53 -56 49 -237 -3 -154 -5 -166 -30 -214 -40 -76 -70 -107 -140
-145 l-63 -34 -1510 0 -1510 0 -57 28 c-67 33 -121 90 -155 164 -21 46 -26 75
-30 177 -7 159 1 211 37 248 l28 28 1677 0 c1446 0 1680 -2 1704 -15z"/>
<path d="M4636 3478 c-14 -13 -48 -63 -76 -112 -28 -48 -91 -145 -140 -215
-138 -196 -172 -287 -151 -404 32 -180 172 -311 363 -339 202 -30 395 67 476
239 23 50 27 71 27 153 0 89 -2 100 -36 170 -20 41 -62 111 -94 155 -81 111
-124 177 -176 269 -27 47 -55 84 -71 92 -41 21 -93 18 -122 -8z m153 -433
c130 -179 151 -237 111 -314 -39 -77 -103 -106 -222 -100 -64 4 -80 9 -112 33
-79 60 -96 136 -52 224 25 48 185 276 191 270 2 -2 39 -52 84 -113z"/>
</g>
</svg>
